<?xml version="1.0" encoding="utf-8"?>
<!-- Generator: Adobe Illustrator 16.0.0, SVG Export Plug-In . SVG Version: 6.00 Build 0)  -->
<!DOCTYPE svg PUBLIC "-//W3C//DTD SVG 1.1//EN" "http://www.w3.org/Graphics/SVG/1.1/DTD/svg11.dtd">
<svg version="1.1" id="Capa_1" xmlns="http://www.w3.org/2000/svg" xmlns:xlink="http://www.w3.org/1999/xlink" x="0px" y="0px"
	 width="512px" height="512px" viewBox="0 0 512 512" enable-background="new 0 0 512 512" xml:space="preserve">
<g>
	<g>
		<path fill="#3388DD" d="M319.234,69.1l-17.351-4.757c-2.233-0.745-4.434-0.51-6.573,0.701c-2.146,1.212-3.595,3.032-4.34,5.457
			l-104.36,361.203c-0.745,2.425-0.512,4.712,0.701,6.854c1.212,2.146,3.028,3.592,5.457,4.336l17.346,4.759
			c2.238,0.751,4.43,0.516,6.576-0.697c2.146-1.218,3.592-3.032,4.336-5.452L325.389,80.294c0.744-2.424,0.514-4.711-0.701-6.858
			C323.475,71.289,321.66,69.844,319.234,69.1z"/>
		<path fill="#3388DD" d="M162.838,139.61c0-2.424-0.934-4.571-2.799-6.436l-13.991-13.99c-1.865-1.865-4.011-2.8-6.436-2.8
			s-4.572,0.936-6.436,2.8L2.799,249.563C0.932,251.428,0,253.574,0,255.999s0.934,4.571,2.799,6.435l130.377,130.378
			c1.864,1.867,4.007,2.797,6.436,2.797s4.572-0.933,6.436-2.797l13.991-13.982c1.865-1.864,2.799-4.011,2.799-6.438
			c0-2.422-0.934-4.567-2.799-6.432L50.083,255.999l109.956-109.953C161.907,144.182,162.838,142.035,162.838,139.61z"/>
		<path fill="#3388DD" d="M509.203,249.56L378.822,119.182c-1.865-1.864-4.012-2.8-6.432-2.8c-2.429,0-4.568,0.936-6.439,2.8
			l-13.984,13.989c-1.863,1.865-2.794,4.008-2.794,6.436s0.929,4.571,2.794,6.436l109.958,109.956L351.967,365.959
			c-1.863,1.864-2.794,4.011-2.794,6.432c0,2.429,0.929,4.574,2.794,6.438l13.984,13.982c1.871,1.867,4.012,2.796,6.439,2.796
			c2.421,0,4.567-0.932,6.432-2.796l130.381-130.378c1.864-1.863,2.797-4.014,2.797-6.438
			C512,253.57,511.067,251.424,509.203,249.56z"/>
	</g>
</g>
</svg>
