<?xml version="1.0" encoding="utf-8"?>
<!-- Generator: Adobe Illustrator 16.0.0, SVG Export Plug-In . SVG Version: 6.00 Build 0)  -->
<!DOCTYPE svg PUBLIC "-//W3C//DTD SVG 1.1//EN" "http://www.w3.org/Graphics/SVG/1.1/DTD/svg11.dtd">
<svg version="1.1" id="Layer_1" xmlns="http://www.w3.org/2000/svg" xmlns:xlink="http://www.w3.org/1999/xlink" x="0px" y="0px"
	 width="1170px" height="858px" viewBox="0 0 1170 858" enable-background="new 0 0 1170 858" xml:space="preserve">
<g>
	<g>
		<g enable-background="new    ">
			<defs>
				<polygon id="SVGID_1_" enable-background="new    " points="111.426,849.447 112.748,137.632 1051.258,5.732 1049.936,717.549 
									"/>
			</defs>
			<clipPath id="SVGID_2_">
				<use xlink:href="#SVGID_1_"  overflow="visible"/>
			</clipPath>
			<g clip-path="url(#SVGID_2_)">
				<g>
					<g>
						<g>
							<path fill="#FFFFFF" d="M1024.55,9.486L139.446,133.879c-14.747,2.073-26.722,16.661-26.751,32.578l-1.215,654.165
								c-0.029,15.917,11.898,27.146,26.645,25.073l885.104-124.394c14.747-2.072,26.73-16.662,26.761-32.578l1.215-654.166
								C1051.233,18.641,1039.298,7.414,1024.55,9.486"/>
						</g>
					</g>
				</g>
			</g>
		</g>
	</g>
</g>
<g>
	<g>
		<g>
			<g enable-background="new    ">
				<defs>
					<polygon id="SVGID_3_" enable-background="new    " points="683.482,661.479 684.359,189.44 988.011,146.765 987.134,618.804 
											"/>
				</defs>
				<clipPath id="SVGID_4_">
					<use xlink:href="#SVGID_3_"  overflow="visible"/>
				</clipPath>
				<g clip-path="url(#SVGID_4_)">
					<g>
						<g>
							<g>
								<path fill="#4470B7" d="M876.434,209.709l-110.88,15.583c-4.094,0.575-7.417,4.621-7.425,9.039l-0.319,172.104l-66.455,9.34
									c-4.102,0.576-7.424,4.63-7.433,9.048c-0.008,4.427,3.302,7.541,7.403,6.963l66.454-9.339l-0.319,172.105
									c-0.009,4.418,3.301,7.54,7.395,6.965l110.864-15.581c0.265-0.037,0.527-0.09,0.785-0.155l0.029-15.923
									c-0.257,0.007-0.52,0.029-0.785,0.066l-103.446,14.538l0.305-164.099l103.463-14.541c0.26-0.037,0.517-0.087,0.769-0.15
									l0.029-15.927c-0.252,0.007-0.509,0.029-0.768,0.065l-103.463,14.541l0.305-164.099l103.463-14.541
									c0.259-0.037,0.517-0.087,0.769-0.151l0.029-15.918C876.95,209.651,876.693,209.673,876.434,209.709"/>
								<path fill="#4470B7" d="M954.791,151.434l-44.289,6.225c-18.345,2.578-33.241,20.723-33.278,40.522l-0.021,11.464
									l-0.029,15.918l-0.038,20.421c-0.037,19.799,14.801,33.756,33.145,31.178l44.29-6.224
									c18.344-2.578,33.249-20.716,33.286-40.515l0.089-47.804C987.98,162.82,973.136,148.856,954.791,151.434"/>
								<path fill="#4470B7" d="M954.466,326.669l-44.29,6.224c-18.344,2.578-33.241,20.723-33.277,40.522l-0.031,16.332
									l-0.029,15.927l-0.028,15.544c-0.037,19.799,14.801,33.756,33.145,31.178l44.29-6.225
									c18.344-2.578,33.249-20.715,33.285-40.514l0.089-47.803C987.655,338.055,972.81,324.091,954.466,326.669"/>
								<path fill="#4470B7" d="M954.137,503.97l-44.29,6.225c-18.344,2.578-33.241,20.715-33.278,40.522l-0.035,19.143
									l-0.029,15.923l-0.024,12.729c-0.036,19.809,14.802,33.765,33.146,31.187l44.289-6.225
									c18.345-2.578,33.25-20.715,33.286-40.522l0.089-47.794C987.326,515.348,972.48,501.392,954.137,503.97"/>
							</g>
						</g>
					</g>
				</g>
			</g>
		</g>
	</g>
	<g>
		<g>
			<g enable-background="new    ">
				<defs>
					<polygon id="SVGID_7_" enable-background="new    " points="906.27,250.08 906.391,184.925 961.271,177.212 961.149,242.367 
											"/>
				</defs>
				<clipPath id="SVGID_5_">
					<use xlink:href="#SVGID_7_"  overflow="visible"/>
				</clipPath>
				<g clip-path="url(#SVGID_5_)">
					<g>
						<g>
							<g>
								<path fill="#FFFFFF" d="M933.74,232.009c11.928-1.676,20.183-5.438,24.338-9.375c0.337-0.315,0.634-0.625,0.915-0.933
									l-0.019,9.96l-0.032,0.16c-0.633,4.186-10.918,10.022-25.225,12.033c-14.314,2.012-24.584-0.936-25.201-4.946l-0.032-0.151
									l0.019-9.96l0.104,0.072c0.24,0.191,0.479,0.391,0.751,0.568C913.486,232.228,921.756,233.693,933.74,232.009
									 M933.767,217.787c11.928-1.677,20.183-5.438,24.338-9.376c0.337-0.307,0.634-0.616,0.915-0.932l-0.016,8.801
									c-0.05,0.171-0.065,0.355-0.033,0.532c0.022,0.126,0.031,0.255,0.031,0.394c0,0.19-0.041,0.386-0.09,0.583
									c-0.032,0.152-0.072,0.296-0.121,0.45c-0.048,0.127-0.104,0.248-0.16,0.377c-0.072,0.157-0.161,0.308-0.257,0.468
									c-0.073,0.123-0.153,0.246-0.242,0.363c-0.12,0.172-0.248,0.346-0.4,0.523c-0.089,0.108-0.185,0.208-0.281,0.316
									c-0.185,0.198-0.369,0.389-0.578,0.591c-0.088,0.082-0.192,0.166-0.288,0.248c-0.249,0.225-0.506,0.442-0.786,0.664
									l-0.232,0.171c-0.329,0.245-0.674,0.493-1.043,0.735l-0.145,0.098c-0.408,0.265-0.841,0.533-1.299,0.796l-0.04,0.023
									c-2.501,1.423-5.69,2.779-9.4,3.888l-0.057,0.017c-0.729,0.214-1.466,0.422-2.228,0.616
									c-0.12,0.034-0.256,0.062-0.376,0.096c-0.665,0.171-1.338,0.326-2.027,0.483c-0.32,0.071-0.648,0.126-0.97,0.188
									c-0.521,0.107-1.041,0.224-1.569,0.315c-0.874,0.149-1.763,0.299-2.668,0.427c-0.913,0.128-1.803,0.228-2.675,0.315
									c-0.529,0.057-1.042,0.094-1.562,0.133c-0.328,0.029-0.656,0.058-0.969,0.076c-0.697,0.046-1.369,0.072-2.026,0.094
									c-0.128,0.001-0.257,0.011-0.384,0.011c-0.762,0.021-1.499,0.02-2.219,0.009l-0.057-0.001
									c-3.716-0.074-6.902-0.525-9.399-1.254l-0.039-0.012c-0.457-0.134-0.889-0.272-1.297-0.432l-0.145-0.048
									c-0.368-0.139-0.712-0.289-1.032-0.443l-0.24-0.113c-0.279-0.134-0.536-0.288-0.784-0.434
									c-0.096-0.056-0.191-0.111-0.287-0.176c-0.208-0.135-0.393-0.274-0.576-0.42c-0.097-0.082-0.191-0.164-0.28-0.237
									c-0.152-0.134-0.279-0.272-0.399-0.411c-0.088-0.1-0.168-0.192-0.239-0.295c-0.096-0.133-0.177-0.269-0.256-0.405
									c-0.056-0.104-0.112-0.217-0.151-0.324c-0.056-0.139-0.096-0.281-0.127-0.415c-0.041-0.184-0.088-0.368-0.088-0.558
									c0-0.138,0.017-0.271,0.033-0.402c0.032-0.186,0.016-0.365-0.031-0.522l0.016-8.802l0.104,0.081
									c0.24,0.191,0.479,0.382,0.752,0.568C913.513,218.014,921.782,219.471,933.767,217.787 M933.793,203.573
									c0.993-0.14,1.962-0.302,2.908-0.469c0.264-0.046,0.528-0.1,0.793-0.146c0.729-0.137,1.441-0.281,2.138-0.439
									c0.217-0.048,0.434-0.087,0.649-0.134c0.874-0.201,1.715-0.414,2.532-0.633c0.168-0.05,0.336-0.099,0.505-0.149
									c0.657-0.188,1.298-0.373,1.914-0.571c0.233-0.076,0.458-0.142,0.674-0.216c0.657-0.222,1.29-0.44,1.907-0.674
									c0.097-0.04,0.2-0.071,0.297-0.103c0.697-0.271,1.362-0.545,2.003-0.826c0.177-0.076,0.345-0.16,0.521-0.237
									c0.488-0.224,0.954-0.445,1.41-0.673c0.16-0.083,0.321-0.167,0.481-0.24c0.568-0.305,1.114-0.606,1.627-0.912l0.217-0.134
									c0.441-0.269,0.858-0.544,1.259-0.816c0.145-0.098,0.272-0.194,0.409-0.291c0.36-0.258,0.698-0.513,1.019-0.774
									c0.089-0.073,0.177-0.137,0.257-0.209c0.385-0.322,0.745-0.64,1.074-0.972c0.08-0.08,0.152-0.16,0.232-0.249
									c0.145-0.141,0.297-0.292,0.426-0.44l-0.016,8.792c-0.049,0.18-0.065,0.364-0.033,0.532
									c0.023,0.135,0.031,0.264,0.031,0.402c0,0.19-0.041,0.386-0.09,0.583c-0.032,0.151-0.072,0.295-0.121,0.449
									c-0.048,0.119-0.104,0.248-0.16,0.368c-0.072,0.157-0.161,0.316-0.257,0.477c-0.073,0.123-0.153,0.237-0.242,0.362
									c-0.12,0.173-0.248,0.347-0.4,0.523c-0.089,0.108-0.185,0.208-0.281,0.316c-0.185,0.198-0.369,0.389-0.578,0.583
									c-0.088,0.09-0.192,0.174-0.288,0.256c-0.249,0.217-0.506,0.443-0.787,0.664l-0.231,0.171
									c-0.329,0.245-0.674,0.492-1.043,0.734l-0.145,0.09c-0.408,0.273-0.841,0.542-1.299,0.805l-0.04,0.014
									c-2.501,1.432-5.69,2.779-9.4,3.897l-0.057,0.017c-0.729,0.214-1.466,0.421-2.228,0.615
									c-0.12,0.034-0.256,0.062-0.376,0.096c-0.665,0.163-1.338,0.326-2.027,0.475c-0.32,0.071-0.648,0.135-0.97,0.197
									c-0.521,0.108-1.041,0.216-1.569,0.316c-0.874,0.148-1.762,0.291-2.668,0.418c-0.913,0.128-1.803,0.236-2.675,0.325
									c-0.528,0.057-1.042,0.085-1.562,0.133c-0.328,0.02-0.656,0.058-0.969,0.075c-0.697,0.047-1.369,0.072-2.026,0.086
									c-0.128,0.01-0.257,0.011-0.384,0.02c-0.762,0.012-1.499,0.02-2.219,0l-0.057,0c-3.716-0.066-6.902-0.525-9.399-1.247
									l-0.039-0.012c-0.457-0.134-0.889-0.281-1.297-0.431l-0.145-0.049c-0.368-0.147-0.712-0.289-1.032-0.442l-0.24-0.113
									c-0.279-0.142-0.536-0.288-0.784-0.435c-0.096-0.064-0.191-0.12-0.287-0.175c-0.208-0.135-0.393-0.282-0.576-0.42
									c-0.097-0.082-0.191-0.163-0.28-0.246c-0.151-0.125-0.279-0.263-0.399-0.402c-0.088-0.1-0.168-0.201-0.24-0.294
									c-0.095-0.134-0.176-0.27-0.255-0.405c-0.056-0.113-0.112-0.218-0.151-0.333c-0.056-0.131-0.096-0.272-0.127-0.406
									c-0.041-0.184-0.088-0.368-0.088-0.558c0-0.138,0.017-0.271,0.033-0.411c0.032-0.177,0.016-0.356-0.031-0.522l0.016-8.793
									c0.137,0.11,0.281,0.22,0.425,0.321c0.08,0.066,0.151,0.125,0.239,0.182c0.328,0.23,0.681,0.458,1.064,0.671
									c0.08,0.049,0.167,0.089,0.256,0.137c0.319,0.171,0.664,0.33,1.023,0.487c0.129,0.06,0.266,0.118,0.4,0.177
									c0.4,0.16,0.816,0.318,1.265,0.462l0.208,0.074c0.513,0.162,1.058,0.31,1.625,0.455c0.16,0.029,0.328,0.066,0.488,0.104
									c0.448,0.101,0.921,0.19,1.401,0.279c0.176,0.027,0.344,0.064,0.528,0.09c0.64,0.1,1.297,0.189,1.993,0.264
									c0.096,0.004,0.2,0.006,0.297,0.019c0.615,0.061,1.249,0.101,1.905,0.139c0.224,0.012,0.448,0.015,0.672,0.026
									c0.625,0.024,1.266,0.029,1.923,0.032c0.168,0.002,0.328,0.005,0.497,0.008c0.816-0.011,1.666-0.035,2.53-0.079
									c0.216-0.014,0.44-0.036,0.657-0.049c0.695-0.037,1.4-0.093,2.13-0.161c0.265-0.028,0.528-0.048,0.802-0.078
									C931.83,203.823,932.791,203.713,933.793,203.573 M933.797,201.204c-14.883,2.091-25.24-1.138-25.232-5.34
									c0.008-4.202,10.383-10.336,25.266-12.428c14.875-2.091,25.232,1.13,25.225,5.332S948.672,199.113,933.797,201.204
									 M933.834,181.067c-16.549,2.326-26.027,8.654-27.302,13.916c-0.089,0.185-0.161,0.386-0.161,0.602l-0.001,0.588
									l-0.025,13.626l-0.001,0.597l-0.001,0.588l-0.024,13.029l-0.001,0.597l-0.002,0.588l-0.026,14.223
									c0,0.189,0.048,0.365,0.128,0.509c1.286,5.619,12.877,8.32,27.297,6.294c14.379-2.021,25.969-7.962,27.317-13.926
									c0.089-0.185,0.138-0.382,0.138-0.589l0.026-14.223l0.001-0.588l0.001-0.597l0.024-13.029l0.001-0.588l0.001-0.597
									l0.025-13.626l0.002-0.588c0-0.216-0.064-0.397-0.159-0.557C959.835,182.41,950.376,178.743,933.834,181.067"/>
							</g>
						</g>
					</g>
				</g>
			</g>
		</g>
	</g>
	<g>
		<g>
			<g enable-background="new    ">
				<defs>
					<polygon id="SVGID_9_" enable-background="new    " points="913.236,600.349 913.35,539.369 952.313,533.894 952.2,594.873 
											"/>
				</defs>
				<clipPath id="SVGID_6_">
					<use xlink:href="#SVGID_9_"  overflow="visible"/>
				</clipPath>
				<g clip-path="url(#SVGID_6_)">
					<g>
						<g>
							<g>
								<path fill="#FFFFFF" d="M932.722,595.51c-9.668,1.359-17.52-6.025-17.5-16.461c0.013-6.874,3.445-13.363,8.546-17.399
									c0.898-0.705,1.837-1.33,2.799-1.863c0.176-0.093,0.345-0.187,0.521-0.28c0.265-0.132,0.529-0.265,0.802-0.39
									c0.336-0.15,0.665-0.292,1.01-0.427c0.248-0.095,0.497-0.183,0.745-0.261c0.36-0.128,0.722-0.239,1.09-0.344
									c0.168-0.04,0.329-0.08,0.496-0.121c0.514-0.124,1.034-0.231,1.562-0.306c0.521-0.073,1.041-0.111,1.554-0.132
									c0.169-0.006,0.337-0.013,0.505-0.011c0.369-0.008,0.729,0.001,1.089,0.028c0.249,0.009,0.497,0.026,0.745,0.051
									c0.336,0.039,0.672,0.088,1,0.145c0.273,0.048,0.537,0.106,0.802,0.164c0.176,0.045,0.352,0.09,0.52,0.135
									c0.969,0.262,1.905,0.623,2.802,1.076c5.08,2.604,8.497,8.132,8.484,15.006C950.272,584.556,942.391,594.151,932.722,595.51
									 M924.021,559.055l0.02-10.444c0.009-4.764,3.949-9.198,8.787-9.878c4.831-0.68,8.757,2.65,8.748,7.414l-0.02,10.444
									c-0.184-0.069-0.368-0.139-0.552-0.199c-0.385-0.145-0.769-0.264-1.169-0.38c-0.257-0.068-0.504-0.137-0.77-0.195
									c-0.247-0.06-0.495-0.12-0.76-0.161c-0.425-0.078-0.856-0.13-1.289-0.182c-0.184-0.018-0.376-0.033-0.561-0.051
									c-0.513-0.032-1.025-0.046-1.537-0.034c-0.12-0.001-0.24,0.016-0.353,0.015c-0.593,0.022-1.178,0.071-1.771,0.154
									s-1.186,0.2-1.77,0.344c-0.121,0.025-0.233,0.05-0.354,0.084c-0.513,0.132-1.025,0.29-1.538,0.467
									c-0.192,0.07-0.376,0.139-0.569,0.209c-0.432,0.174-0.865,0.347-1.29,0.545c-0.256,0.113-0.505,0.244-0.762,0.375
									c-0.256,0.132-0.513,0.271-0.77,0.411c-0.393,0.219-0.777,0.454-1.162,0.707
									C924.39,558.812,924.205,558.935,924.021,559.055 M932.831,536.632c-5.911,0.831-10.727,6.321-10.738,12.253l-0.021,11.663
									c-5.285,4.503-8.782,11.451-8.796,18.774c-0.021,11.594,8.701,19.798,19.442,18.288c10.742-1.51,19.5-12.17,19.521-23.765
									c0.014-7.322-3.467-13.29-8.739-16.309l0.021-11.664C943.532,539.941,938.734,535.802,932.831,536.632"/>
								<path fill="#FFFFFF" d="M932.743,583.941c-3.757,0.528-6.81-2.345-6.803-6.399c0.008-4.055,3.073-7.788,6.83-8.315
									c3.758-0.528,6.811,2.345,6.804,6.399C939.566,579.681,936.501,583.414,932.743,583.941 M932.782,562.914
									c-0.544,0.077-0.978,0.613-0.979,1.193l-0.006,3.216c-1.691,0.437-3.23,1.379-4.498,2.646l-2.103-1.986
									c-0.191-0.176-0.441-0.242-0.691-0.207c-0.249,0.035-0.498,0.172-0.687,0.4c-0.386,0.47-0.387,1.135-0.002,1.488
									l2.103,1.986c-1.013,1.498-1.681,3.261-1.876,5.104l-2.98,0.418c-0.536,0.076-0.97,0.611-0.971,1.191
									c-0.001,0.578,0.431,0.993,0.967,0.918l2.98-0.419c0.188,1.789,0.851,3.364,1.857,4.579l-2.111,2.579
									c-0.386,0.47-0.387,1.126-0.002,1.487c0.191,0.181,0.439,0.24,0.688,0.206c0.248-0.035,0.497-0.165,0.689-0.4l2.111-2.578
									c1.264,0.912,2.8,1.422,4.49,1.384l-0.006,3.216c-0.001,0.578,0.431,0.993,0.975,0.917c0.537-0.075,0.971-0.612,0.972-1.19
									l0.007-3.217c1.689-0.436,3.229-1.378,4.497-2.646l2.11,1.985c0.184,0.183,0.44,0.241,0.688,0.206
									c0.249-0.034,0.498-0.164,0.683-0.398c0.385-0.469,0.386-1.125,0.003-1.487l-2.104-1.986
									c1.012-1.499,1.688-3.262,1.876-5.104l2.979-0.419c0.537-0.075,0.979-0.613,0.979-1.191c0.001-0.58-0.438-0.993-0.976-0.918
									l-2.979,0.419c-0.182-1.79-0.851-3.364-1.857-4.579l2.111-2.579c0.385-0.461,0.386-1.126,0.003-1.487
									c-0.188-0.177-0.438-0.242-0.685-0.208c-0.249,0.035-0.498,0.171-0.686,0.4l-2.119,2.579
									c-1.264-0.911-2.801-1.421-4.49-1.382l0.006-3.216C933.751,563.254,933.319,562.839,932.782,562.914"/>
							</g>
						</g>
					</g>
				</g>
			</g>
		</g>
	</g>
	<g>
		<g>
			<g enable-background="new    ">
				<defs>
					<polygon id="SVGID_15_" enable-background="new    " points="909.377,411.59 909.444,375.277 961.119,368.015 961.052,404.328 
											"/>
				</defs>
				<clipPath id="SVGID_8_">
					<use xlink:href="#SVGID_15_"  overflow="visible"/>
				</clipPath>
				<g clip-path="url(#SVGID_8_)">
					<g>
						<g>
							<g>
								<path fill="#FFFFFF" d="M960.059,400.145l-30.047,4.224c-0.289,0.04-0.529,0.177-0.723,0.411
									c-0.185,0.226-0.28,0.498-0.281,0.811l-0.004,2.161c0,0.319,0.095,0.565,0.278,0.738c0.192,0.181,0.433,0.242,0.722,0.201
									l30.047-4.223c0.296-0.041,0.536-0.171,0.721-0.404c0.193-0.226,0.281-0.497,0.282-0.817l0.004-2.161
									c0.001-0.312-0.087-0.559-0.279-0.73C960.595,400.173,960.354,400.104,960.059,400.145"/>
								<path fill="#FFFFFF" d="M912.04,374.913c-0.266,0.037-0.506,0.183-0.715,0.438l-1.572,1.906
									c-0.209,0.254-0.313,0.528-0.313,0.822c-0.001,0.294,0.102,0.538,0.311,0.734l12.279,11.55l-12.329,15
									c-0.209,0.255-0.312,0.528-0.313,0.822c0,0.294,0.103,0.538,0.311,0.734l1.566,1.465c0.209,0.196,0.448,0.275,0.713,0.237
									c0.272-0.038,0.513-0.185,0.722-0.438l14.616-17.794c0.209-0.254,0.313-0.528,0.314-0.813c0-0.294-0.104-0.539-0.312-0.734
									l-14.558-13.694C912.552,374.953,912.312,374.874,912.04,374.913"/>
							</g>
						</g>
					</g>
				</g>
			</g>
		</g>
	</g>
</g>
<g>
	<g>
		<g>
			<g enable-background="new    ">
				<defs>
					<polygon id="SVGID_10_" enable-background="new    " points="206.734,728.868 207.634,244.344 511.557,201.63 510.657,686.154 
											"/>
				</defs>
				<clipPath id="SVGID_11_">
					<use xlink:href="#SVGID_10_"  overflow="visible"/>
				</clipPath>
				<g clip-path="url(#SVGID_11_)">
					<g>
						<g>
							<g>
								<path fill="#4D4A4C" d="M430.172,268.828l-110.856,15.58c-0.361,0.051-0.717,0.129-1.065,0.231l-0.029,15.848
									c0.348,0.005,0.704-0.016,1.065-0.067l103.439-14.537l-0.305,164.099l-103.455,14.54c-0.356,0.05-0.707,0.126-1.05,0.227
									l-0.029,15.845c0.343,0.003,0.693-0.018,1.049-0.068l103.455-14.539l-0.305,164.099l-103.455,14.54
									c-0.356,0.05-0.707,0.126-1.05,0.228l-0.029,15.852c0.343,0.004,0.693-0.017,1.049-0.067l110.872-15.582
									c4.101-0.576,7.424-4.622,7.433-9.048l0.319-172.105l66.455-9.34c4.093-0.575,7.416-4.621,7.424-9.047
									c0.008-4.419-3.301-7.532-7.395-6.957l-66.455,9.34l0.32-172.104C437.583,271.365,434.273,268.252,430.172,268.828"/>
								<path fill="#4D4A4C" d="M285.134,233.452l-44.289,6.225c-18.344,2.578-33.241,20.723-33.278,40.522l-0.089,47.803
									c-0.037,19.799,14.801,33.756,33.145,31.178l44.29-6.225c18.344-2.578,33.249-20.715,33.286-40.515l0.022-11.953
									l0.029-15.848l0.037-20.002C318.324,244.838,303.479,230.874,285.134,233.452"/>
								<path fill="#4D4A4C" d="M284.785,421.569l-44.29,6.224c-18.344,2.578-33.241,20.715-33.278,40.514l-0.089,47.803
									c-0.037,19.8,14.801,33.766,33.145,31.188l44.289-6.225c18.344-2.578,33.25-20.725,33.286-40.523l0.037-19.956l0.029-15.845
									l0.022-12.002C317.975,432.947,303.129,418.991,284.785,421.569"/>
								<path fill="#4D4A4C" d="M284.457,598.472l-44.29,6.225c-18.344,2.578-33.241,20.715-33.278,40.514l-0.089,47.804
									c-0.037,19.799,14.801,33.765,33.145,31.187l44.29-6.225c18.344-2.578,33.25-20.724,33.286-40.523l0.031-16.749
									l0.029-15.852l0.028-15.202C317.646,609.851,302.801,595.894,284.457,598.472"/>
							</g>
						</g>
					</g>
				</g>
			</g>
		</g>
	</g>
	<g>
		<g>
			<g enable-background="new    ">
				<defs>
					<polygon id="SVGID_12_" enable-background="new    " points="241.294,327.604 241.401,269.936 286.845,263.549 
						286.738,321.217 					"/>
				</defs>
				<clipPath id="SVGID_13_">
					<use xlink:href="#SVGID_12_"  overflow="visible"/>
				</clipPath>
				<g clip-path="url(#SVGID_13_)">
					<g>
						<g>
							<g>
								<path fill="#FFFFFF" d="M263.995,294.602c-2.427,0.315-4.3-0.26-5.674-1.761c-3.501-3.76-2.732-12.02-2.725-12.09
									l0.008-0.096c0.384-8.62,6.018-10.328,8.429-10.667l0.048-0.006l0.087-0.012c2.988-0.351,8.056,0.25,8.385,8.303
									l0.016,0.093c0.008,0.077,0.77,8.094-2.755,12.859c-1.397,1.891-3.265,2.992-5.708,3.361l-0.056,0.008L263.995,294.602
									 M264.239,266.726l-0.08,0.011l-0.04,0.006l-0.072,0.01c-1.226,0.172-3.637,0.727-5.955,2.471
									c-2.326,1.744-5.159,5.185-5.452,11.64c-0.082,0.858-0.803,9.846,3.449,14.426c1.918,2.082,4.543,2.948,7.779,2.554
									l0.176-0.025l0.072-0.01l0.104-0.015c3.244-0.516,5.874-2.122,7.809-4.745c4.271-5.778,3.583-14.567,3.504-15.403
									c-0.269-6.324-3.05-8.976-5.347-10.079C268.476,266.753,266.474,266.455,264.239,266.726"/>
								<path fill="#FFFFFF" d="M256.514,298.76c-0.295,0.042-0.594,0.178-0.856,0.41c-0.04,0.049-4.171,3.732-9.188,5.803
									l-0.112,0.06c-4.801,2.446-4.956,8-5.024,10.361c0,0.104,0,0.199-0.017,0.296v0.043c-0.009,0.624-0.031,3.808,0.559,5.324
									c0.103,0.297,0.303,0.537,0.567,0.672c0.336,0.195,8.281,4.549,21.585,2.68c13.313-1.871,21.278-8.471,21.615-8.751
									c0.249-0.208,0.465-0.506,0.57-0.833c0.563-1.661,0.553-4.849,0.547-5.471v-0.034c0-0.095-0.016-0.188-0.016-0.3
									c-0.06-2.351-0.193-7.865-4.989-8.954l-0.112-0.019c-4.988-0.673-9.131-3.194-9.18-3.222
									c-0.26-0.165-0.559-0.218-0.854-0.177c-0.468,0.066-0.93,0.371-1.221,0.857c-0.482,0.803-0.315,1.782,0.356,2.198
									c0.192,0.12,4.592,2.803,10.092,3.56c2.578,0.632,2.86,3.565,2.936,6.269c0,0.112,0,0.208,0.007,0.301
									c0.014,1.07-0.062,2.74-0.239,3.725c-1.796,1.351-8.829,6.133-19.515,7.635c-10.646,1.496-17.704-1.323-19.504-2.168
									c-0.174-0.926-0.251-2.575-0.225-3.651c0-0.104,0.008-0.2,0.008-0.304c0.085-2.734,0.379-5.75,2.953-7.096
									c5.514-2.305,9.926-6.244,10.11-6.4c0.682-0.614,0.844-1.64,0.372-2.299C257.45,298.869,256.987,298.693,256.514,298.76"/>
							</g>
						</g>
					</g>
				</g>
			</g>
		</g>
	</g>
	<g>
		<g>
			<g enable-background="new    ">
				<defs>
					<polygon id="SVGID_14_" enable-background="new    " points="232.995,505.641 233.07,465.044 290.024,457.039 289.948,497.637 
											"/>
				</defs>
				<clipPath id="SVGID_16_">
					<use xlink:href="#SVGID_14_"  overflow="visible"/>
				</clipPath>
				<g clip-path="url(#SVGID_16_)">
					<g>
						<g>
							<g>
								<path fill="#FFFFFF" d="M281.177,458.282c-4.556,0.641-7.814,5.619-8.056,10.255c0.162,3.365,1.591,5.559,3.551,6.719
									c-1.904,3.354-3.816,6.707-5.729,10.054c-1.056-0.448-2.249-0.644-3.442-0.545c-0.114,0.009-0.228,0.022-0.341,0.038
									c-1.544,0.217-2.922,1.009-4.043,2.125c-2.174-2.322-4.348-4.644-6.522-6.966c0.378-0.892,0.612-1.85,0.662-2.781
									c0.183-3.562-2.784-5.703-5.804-5.46c-0.093,0.008-0.186,0.018-0.277,0.03c-3.132,0.44-5.381,3.874-5.542,7.063
									c0.046,0.97,0.277,1.827,0.628,2.573c-1.799,2.491-3.589,4.981-5.388,7.481c-0.792-0.493-1.752-0.729-2.85-0.645
									c-0.081,0.006-0.16,0.016-0.239,0.026c-2.695,0.379-4.624,3.33-4.77,6.071c-0.157,3.064,2.394,4.901,4.988,4.692
									c0.081-0.007,0.161-0.016,0.24-0.027c2.695-0.378,4.624-3.329,4.769-6.07c-0.054-1.013-0.325-1.882-0.756-2.608
									c1.365-1.895,2.738-3.799,4.103-5.693c0.377-0.528,0.754-1.048,1.124-1.566c1.007,0.896,2.368,1.344,3.946,1.217
									c0.096-0.008,0.19-0.019,0.285-0.031c1.458-0.205,2.725-1.064,3.675-2.245c2.102,2.246,4.204,4.491,6.306,6.737
									c-0.948,1.542-1.536,3.336-1.627,5.095c0.216,4.49,3.206,7.303,7.403,6.964c0.119-0.01,0.237-0.023,0.353-0.04
									c4.005-0.562,6.87-4.938,7.08-9.009c0.125-2.343-0.817-4.189-2.28-5.401c1.96-3.439,3.92-6.887,5.881-10.326
									c0.971,0.242,2.005,0.286,3.04,0.141c4.073-0.572,8.157-4.077,8.462-9.985c0.266-5.181-4.045-8.291-8.426-7.926
									C281.445,458.249,281.311,458.264,281.177,458.282"/>
							</g>
						</g>
					</g>
				</g>
			</g>
		</g>
	</g>
	<g>
		<g>
			<g enable-background="new    ">
				<defs>
					<polygon id="SVGID_17_" enable-background="new    " points="242.39,690.333 242.488,637.598 281.403,632.129 281.305,684.864 
											"/>
				</defs>
				<clipPath id="SVGID_18_">
					<use xlink:href="#SVGID_17_"  overflow="visible"/>
				</clipPath>
				<g clip-path="url(#SVGID_18_)">
					<g>
						<g>
							<g>
								<path fill="#FFFFFF" d="M275.837,644.99l-14.691,2.064l-2.321,7.785L275.837,644.99 M258.864,637.963l2.285,7.138
									l14.699-2.066L258.864,637.963"/>
								<path fill="#FFFFFF" d="M258.825,654.84l2.321-7.785l14.691-2.064L258.825,654.84 M261.149,645.101l-2.285-7.138
									l16.984,5.071L261.149,645.101 M257.415,635.5c-0.225,0.031-0.445,0.154-0.621,0.351c-0.256,0.295-0.354,0.706-0.242,1.054
									l3.01,9.413l-3.062,10.259c-0.113,0.388-0.026,0.772,0.238,0.994c0.168,0.15,0.384,0.215,0.616,0.182
									c0.112-0.016,0.232-0.049,0.336-0.125l23.145-13.383l0.008-0.001l0.024-0.021l0.112-0.084l0.04-0.04l0.088-0.082
									l0.032-0.039l0.104-0.145l0.064-0.165l0.024-0.055l0.032-0.117l0.008-0.061l0.008-0.192l-0.016-0.171l-0.016-0.058
									l-0.024-0.109l-0.024-0.057l-0.072-0.137l-0.008-0.008l-0.088-0.108l-0.032-0.03l-0.087-0.057l-0.041-0.029l-0.112-0.053
									l-0.024-0.015l-23.083-6.886C257.645,635.491,257.529,635.483,257.415,635.5"/>
								<path fill="#FFFFFF" d="M252.703,686.912c-0.241,0.034-0.465,0.17-0.642,0.385c-0.168,0.205-0.265,0.47-0.266,0.729
									c0,0.251,0.095,0.488,0.263,0.646c0.176,0.174,0.4,0.236,0.64,0.203c0.24-0.034,0.473-0.178,0.641-0.384
									c0.168-0.205,0.273-0.471,0.274-0.722c0-0.259-0.104-0.495-0.271-0.652C253.175,686.95,252.943,686.879,252.703,686.912"/>
								<path fill="#FFFFFF" d="M277.512,680.616c-0.225,0.031-0.449,0.151-0.621,0.356c-0.361,0.422-0.378,1.037-0.035,1.379
									c0.176,0.174,0.416,0.244,0.656,0.21c0.232-0.032,0.449-0.149,0.633-0.357c0.361-0.431,0.371-1.046,0.019-1.385
									C277.988,680.648,277.75,680.582,277.512,680.616"/>
								<path fill="#FFFFFF" d="M279.406,677.587c-0.327,0.046-0.64,0.286-0.804,0.655c-0.233,0.518-0.05,1.07,0.398,1.258
									c0.128,0.051,0.264,0.066,0.409,0.047c0.328-0.047,0.649-0.282,0.81-0.65c0.233-0.517,0.05-1.078-0.398-1.258
									C279.687,677.583,279.545,677.567,279.406,677.587"/>
								<path fill="#FFFFFF" d="M279.056,667.776c-0.162,0.022-0.326,0.092-0.475,0.209c-0.433,0.346-0.562,0.97-0.307,1.392
									c0.176,0.278,0.472,0.4,0.768,0.359c0.176-0.034,0.336-0.101,0.481-0.224c0.433-0.338,0.562-0.961,0.307-1.375
									C279.657,667.857,279.361,667.733,279.056,667.776"/>
								<path fill="#FFFFFF" d="M280.21,670.789c-0.059,0.008-0.118,0.022-0.177,0.044c-0.489,0.18-0.802,0.743-0.699,1.255
									c0.087,0.447,0.463,0.714,0.872,0.656l0.192-0.053c0.489-0.172,0.803-0.735,0.699-1.248
									C281.014,670.992,280.633,670.729,280.21,670.789"/>
								<path fill="#FFFFFF" d="M276.966,665.481c-0.263,0.037-0.522,0.196-0.704,0.461c-0.313,0.468-0.258,1.074,0.134,1.365
									c0.168,0.122,0.368,0.163,0.568,0.136c0.264-0.037,0.529-0.195,0.706-0.463c0.321-0.459,0.266-1.065-0.125-1.355
									C277.374,665.498,277.169,665.453,276.966,665.481"/>
								<path fill="#FFFFFF" d="M243.351,659.261c-0.044,0.006-0.089,0.016-0.134,0.029c-0.497,0.14-0.842,0.688-0.771,1.214
									c0.071,0.476,0.455,0.774,0.896,0.713l0.128-0.026c0.505-0.141,0.843-0.688,0.771-1.214
									C244.183,659.489,243.793,659.198,243.351,659.261"/>
								<path fill="#FFFFFF" d="M244.537,652.467c-0.312,0.044-0.615,0.259-0.78,0.593c-0.25,0.493-0.114,1.08,0.318,1.286
									c0.136,0.067,0.296,0.089,0.457,0.066c0.312-0.044,0.609-0.259,0.786-0.596c0.257-0.485,0.123-1.071-0.318-1.277
									C244.854,652.467,244.694,652.445,244.537,652.467"/>
								<path fill="#FFFFFF" d="M246.242,664.811c-0.242,0.034-0.482,0.172-0.658,0.404c-0.345,0.455-0.323,1.065,0.045,1.377
									c0.184,0.146,0.4,0.203,0.616,0.172c0.24-0.033,0.497-0.182,0.665-0.404c0.337-0.444,0.323-1.057-0.045-1.376
									C246.686,664.835,246.463,664.78,246.242,664.811"/>
								<path fill="#FFFFFF" d="M248.906,666.309c-0.347,0.049-0.677,0.314-0.827,0.708c-0.201,0.521,0.006,1.062,0.462,1.215
									c0.12,0.034,0.24,0.044,0.361,0.026c0.352-0.049,0.681-0.312,0.834-0.713c0.201-0.513-0.014-1.053-0.471-1.205
									C249.148,666.301,249.025,666.292,248.906,666.309"/>
								<path fill="#FFFFFF" d="M246.587,649.564c-0.208,0.029-0.418,0.137-0.591,0.319c-0.377,0.398-0.427,1.028-0.099,1.396
									c0.176,0.2,0.44,0.284,0.688,0.25c0.208-0.029,0.409-0.136,0.593-0.325c0.369-0.407,0.418-1.028,0.099-1.39
									C247.102,649.611,246.846,649.528,246.587,649.564"/>
								<path fill="#FFFFFF" d="M243.421,655.823c-0.429,0.06-0.817,0.439-0.896,0.919c-0.097,0.541,0.222,1.015,0.71,1.041
									l0.177,0.001c0.416-0.059,0.809-0.441,0.891-0.92c0.088-0.54-0.23-1.014-0.719-1.049
									C243.528,655.812,243.474,655.815,243.421,655.823"/>
								<path fill="#FFFFFF" d="M244.324,662.385c-0.141,0.021-0.284,0.076-0.417,0.171c-0.441,0.312-0.61,0.924-0.378,1.367
									c0.159,0.306,0.471,0.452,0.8,0.406c0.136-0.02,0.288-0.075,0.417-0.172c0.441-0.304,0.61-0.924,0.379-1.367
									C244.968,662.486,244.651,662.339,244.324,662.385"/>
								<path fill="#FFFFFF" d="M280.354,674.187c-0.46,0.064-0.853,0.483-0.906,0.98c-0.065,0.545,0.287,0.979,0.775,0.98
									l0.121-0.009c0.449-0.062,0.841-0.473,0.898-0.981c0.065-0.546-0.286-0.98-0.783-0.979
									C280.424,674.179,280.389,674.182,280.354,674.187"/>
								<path fill="#FFFFFF" d="M258.356,665.814c-0.497,0.069-0.906,0.56-0.907,1.113c-0.001,0.535,0.407,0.919,0.904,0.85
									c0.496-0.07,0.914-0.569,0.915-1.105C259.252,666.121,258.853,665.744,258.356,665.814"/>
								<path fill="#FFFFFF" d="M268.644,684.682c-0.505,0.07-0.914,0.569-0.915,1.113c-0.001,0.536,0.399,0.921,0.911,0.85
									c0.497-0.07,0.906-0.568,0.907-1.105C269.548,684.995,269.14,684.611,268.644,684.682"/>
								<path fill="#FFFFFF" d="M259.079,686.025c-0.497,0.07-0.914,0.569-0.915,1.113c-0.001,0.537,0.399,0.922,0.912,0.85
									c0.496-0.07,0.906-0.568,0.907-1.104C259.984,686.339,259.576,685.956,259.079,686.025"/>
								<path fill="#FFFFFF" d="M267.913,664.472c-0.505,0.07-0.914,0.561-0.915,1.114c-0.001,0.535,0.407,0.919,0.911,0.848
									c0.497-0.069,0.906-0.568,0.907-1.104C268.817,664.776,268.417,664.4,267.913,664.472"/>
								<path fill="#FFFFFF" d="M261.544,665.366c-0.497,0.07-0.915,0.561-0.916,1.114c-0.001,0.536,0.399,0.921,0.912,0.849
									c0.497-0.07,0.914-0.569,0.915-1.105C262.44,665.673,262.041,665.297,261.544,665.366"/>
								<path fill="#FFFFFF" d="M255.899,686.473c-0.504,0.071-0.906,0.568-0.907,1.112c-0.001,0.536,0.399,0.921,0.904,0.851
									c0.504-0.071,0.914-0.569,0.915-1.106C256.811,686.785,256.403,686.401,255.899,686.473"/>
								<path fill="#FFFFFF" d="M262.268,685.577c-0.505,0.071-0.915,0.569-0.916,1.114c-0.001,0.536,0.407,0.92,0.912,0.849
									c0.497-0.069,0.906-0.568,0.907-1.104C263.171,685.892,262.772,685.507,262.268,685.577"/>
								<path fill="#FFFFFF" d="M265.456,685.13c-0.505,0.07-0.914,0.569-0.915,1.113c-0.001,0.536,0.398,0.921,0.912,0.849
									c0.496-0.069,0.897-0.566,0.899-1.104C266.352,685.444,265.952,685.06,265.456,685.13"/>
								<path fill="#FFFFFF" d="M264.732,664.918c-0.505,0.071-0.915,0.562-0.916,1.114c-0.001,0.536,0.399,0.921,0.912,0.849
									c0.496-0.07,0.905-0.568,0.906-1.104C265.628,665.225,265.229,664.849,264.732,664.918"/>
								<path fill="#FFFFFF" d="M255.168,666.254c-0.497,0.078-0.906,0.568-0.907,1.112c-0.001,0.536,0.407,0.92,0.903,0.851
									c0.505-0.071,0.914-0.569,0.915-1.106C256.08,666.566,255.68,666.182,255.168,666.254"/>
								<path fill="#FFFFFF" d="M252.431,646.334c-0.009,0.002-0.019,0.003-0.029,0.004c-0.505,0.089-0.89,0.593-0.883,1.137
									c0.007,0.528,0.422,0.882,0.912,0.813c0.005-0.001,0.01-0.002,0.015-0.003c0.497-0.086,0.898-0.584,0.883-1.126
									C253.323,646.635,252.915,646.266,252.431,646.334"/>
								<path fill="#FFFFFF" d="M251.97,666.691c-0.472,0.066-0.858,0.514-0.89,1.035c-0.033,0.541,0.335,0.956,0.839,0.928
									l0.056-0.008c0.473-0.066,0.874-0.511,0.907-1.034c0.024-0.54-0.343-0.954-0.84-0.928
									C252.019,666.686,251.995,666.688,251.97,666.691"/>
								<path fill="#FFFFFF" d="M249.317,647.434c-0.109,0.016-0.22,0.052-0.33,0.111c-0.465,0.264-0.698,0.85-0.515,1.334
									c0.135,0.37,0.471,0.557,0.848,0.504c0.104-0.016,0.216-0.049,0.32-0.106c0.465-0.265,0.698-0.851,0.515-1.334
									C250.021,647.568,249.682,647.383,249.317,647.434"/>
								<path fill="#FFFFFF" d="M274.215,664.185c-0.368,0.052-0.717,0.347-0.85,0.765c-0.177,0.527,0.062,1.055,0.542,1.177
									c0.104,0.021,0.208,0.023,0.312,0.009c0.006-0.001,0.013-0.002,0.019-0.002c0.362-0.051,0.705-0.348,0.832-0.757
									c0.169-0.534-0.07-1.054-0.55-1.177C274.419,664.175,274.317,664.171,274.215,664.185"/>
								<path fill="#FFFFFF" d="M271.108,664.022c-0.504,0.07-0.914,0.561-0.915,1.104c-0.001,0.537,0.399,0.921,0.896,0.852
									l0.016-0.002c0.497-0.07,0.898-0.559,0.907-1.096C272.005,664.346,271.605,663.952,271.108,664.022"/>
								<path fill="#FFFFFF" d="M274.9,682.896c-0.128,0.018-0.258,0.066-0.383,0.147c-0.457,0.289-0.658,0.896-0.451,1.352
									c0.151,0.333,0.479,0.503,0.816,0.456c0.128-0.019,0.248-0.069,0.385-0.141c0.457-0.289,0.658-0.897,0.451-1.352
									C275.561,683.017,275.239,682.848,274.9,682.896"/>
								<path fill="#FFFFFF" d="M271.835,684.209c-0.033,0.005-0.066,0.012-0.1,0.02c-0.488,0.096-0.858,0.623-0.819,1.161
									c0.039,0.496,0.439,0.829,0.896,0.766l0.08-0.012c0.505-0.115,0.874-0.642,0.819-1.17
									C272.675,684.479,272.296,684.145,271.835,684.209"/>
								<path fill="#FFFFFF" d="M255.654,645.873c-0.241,0.033-0.465,0.178-0.633,0.383c-0.177,0.206-0.273,0.471-0.274,0.73
									c0,0.259,0.095,0.487,0.271,0.652c0.168,0.158,0.392,0.23,0.632,0.196c0.241-0.042,0.473-0.169,0.641-0.375
									c0.169-0.214,0.266-0.47,0.266-0.729c0-0.26-0.104-0.496-0.263-0.654C256.126,645.919,255.895,645.839,255.654,645.873"/>
							</g>
						</g>
					</g>
				</g>
			</g>
		</g>
	</g>
</g>
<g>
	<g>
		<g enable-background="new    ">
			<defs>
				<polygon id="SVGID_19_" enable-background="new    " points="529.893,399.198 529.893,398.878 530.037,398.858 530.037,399.178 
									"/>
			</defs>
			<clipPath id="SVGID_20_">
				<use xlink:href="#SVGID_19_"  overflow="visible"/>
			</clipPath>
			<g clip-path="url(#SVGID_20_)">
				<g>
					<g>
						<g>
							<path fill="#010101" d="M529.965,398.868c-0.04,0.006-0.072,0.08-0.073,0.175c0,0.086,0.032,0.151,0.072,0.146
								c0.04-0.006,0.072-0.079,0.072-0.166C530.037,398.928,530.005,398.863,529.965,398.868"/>
						</g>
					</g>
				</g>
			</g>
		</g>
	</g>
</g>
<g>
	<g>
		<g enable-background="new    ">
			<defs>
				<polygon id="SVGID_21_" enable-background="new    " points="545.994,500.169 546.189,395.019 643.612,381.327 643.417,486.478 
									"/>
			</defs>
			<clipPath id="SVGID_22_">
				<use xlink:href="#SVGID_21_"  overflow="visible"/>
			</clipPath>
			<g clip-path="url(#SVGID_22_)">
				<g>
					<g>
						<g>
							<path fill="#010101" d="M594.712,489.485c-24.896,3.499-45.114-15.521-45.064-42.392
								c0.05-26.871,20.349-51.583,45.246-55.083s45.114,15.519,45.064,42.391C639.908,461.273,619.609,485.986,594.712,489.485
								 M594.9,388.172c-26.859,3.775-48.755,30.432-48.809,59.421c-0.054,28.989,21.754,49.504,48.613,45.729
								c26.859-3.774,48.756-30.432,48.81-59.421C643.568,404.912,621.76,384.397,594.9,388.172"/>
							<polyline fill="#010101" points="608.067,452.368 584.02,455.748 587.449,458.965 604.624,456.551 608.067,452.368 							
								"/>
							<polyline fill="#010101" points="612.712,430.763 579.276,435.462 584.042,439.952 607.929,436.596 612.712,430.763 							
								"/>
						</g>
					</g>
				</g>
			</g>
		</g>
	</g>
</g>
</svg>
