<?xml version="1.0" encoding="utf-8"?>
<!-- Generator: Adobe Illustrator 16.0.0, SVG Export Plug-In . SVG Version: 6.00 Build 0)  -->
<!DOCTYPE svg PUBLIC "-//W3C//DTD SVG 1.1//EN" "http://www.w3.org/Graphics/SVG/1.1/DTD/svg11.dtd">
<svg version="1.1" id="Capa_1" xmlns="http://www.w3.org/2000/svg" xmlns:xlink="http://www.w3.org/1999/xlink" x="0px" y="0px"
	 width="1170px" height="858px" viewBox="0 0 1170 858" enable-background="new 0 0 1170 858" xml:space="preserve">
<g>
	<g>
		<path fill="#545E73" d="M913.721,122.571L913.721,122.571C902.521,54.207,742.52,0,546.696,0S190.872,54.207,179.671,122.571l0,0
			h-0.689v7.661v176.196v7.66v7.661v168.536v7.66v7.661v183.856h0.689c11.2,68.35,171.217,122.572,367.025,122.572
			s355.825-54.223,367.024-122.572h0.689V505.607v-7.661v-7.66V321.75v-7.661v-7.66V130.232v-7.661H913.721z"/>
		<g>
			<path fill="#38454F" d="M546.696,628.179c-203.085,0-367.714-58.313-367.714-130.232v191.518h0.689
				c11.2,68.35,171.217,122.572,367.025,122.572s355.825-54.223,367.024-122.572h0.689V497.946
				C914.41,569.865,749.782,628.179,546.696,628.179z"/>
			<path fill="#38454F" d="M178.982,490.286v7.66c0-2.574,0.276-5.117,0.689-7.66H178.982z"/>
			<path fill="#38454F" d="M913.721,490.286c0.414,2.543,0.689,5.086,0.689,7.66v-7.66H913.721z"/>
		</g>
		<g>
			<path fill="#556080" d="M546.696,444.321c-203.085,0-367.714-58.313-367.714-130.232v191.519h0.689
				c11.2,68.349,171.217,122.571,367.025,122.571s355.825-54.223,367.024-122.571h0.689V314.089
				C914.41,386.008,749.782,444.321,546.696,444.321z"/>
			<path fill="#556080" d="M178.982,306.429v7.66c0-2.573,0.276-5.117,0.689-7.66H178.982z"/>
			<path fill="#556080" d="M913.721,306.429c0.414,2.543,0.689,5.087,0.689,7.66v-7.66H913.721z"/>
		</g>
		<ellipse fill="#91BAE1" cx="546.696" cy="130.232" rx="367.714" ry="130.232"/>
		<g>
			<path fill="#8697CB" d="M546.696,260.464c-203.085,0-367.714-58.313-367.714-130.232V321.75h0.689
				c11.2,68.349,171.217,122.571,367.025,122.571s355.825-54.223,367.024-122.571h0.689V130.232
				C914.41,202.151,749.782,260.464,546.696,260.464z"/>
			<path fill="#8697CB" d="M178.982,122.571v7.661c0-2.574,0.276-5.118,0.689-7.661H178.982z"/>
			<path fill="#8697CB" d="M913.721,122.571c0.414,2.543,0.689,5.087,0.689,7.661v-7.661H913.721z"/>
		</g>
	</g>
	<g>
		<circle fill="#26B999" cx="807.161" cy="674.143" r="183.857"/>
		<path fill="#FFFFFF" d="M907.838,584.957c-6.972-4.842-16.501-3.126-21.327,3.83l-85.739,123.185L740.268,662.3
			c-6.527-5.378-16.195-4.413-21.558,2.129c-5.378,6.543-4.428,16.195,2.13,21.558l73.328,60.198
			c2.758,2.252,6.189,3.478,9.714,3.478c0.689,0,1.395-0.046,2.099-0.138c4.229-0.598,8.029-2.911,10.48-6.42L911.668,606.3
			C916.494,599.344,914.778,589.799,907.838,584.957z"/>
	</g>
</g>
</svg>
