<?xml version="1.0" encoding="utf-8"?>
<!-- Generator: Adobe Illustrator 16.0.0, SVG Export Plug-In . SVG Version: 6.00 Build 0)  -->
<!DOCTYPE svg PUBLIC "-//W3C//DTD SVG 1.1//EN" "http://www.w3.org/Graphics/SVG/1.1/DTD/svg11.dtd">
<svg version="1.1" id="Layer_1" xmlns:sketch="http://www.bohemiancoding.com/sketch/ns"
	 xmlns="http://www.w3.org/2000/svg" xmlns:xlink="http://www.w3.org/1999/xlink" x="0px" y="0px" width="195px" height="55px"
	 viewBox="0 0 195 55" enable-background="new 0 0 195 55" xml:space="preserve">
<title>Reflect-horizontal-white</title>
<desc>Created with Sketch.</desc>
<rect x="48.203" y="8.001" fill="none" width="149" height="40.333"/>
<text transform="matrix(1 0 0 1 51.8564 42.0811)" fill="#1C84C1" font-family="'MyriadPro-Regular'" font-size="42">PodHub</text>
<path fill="#1C84C1" d="M32.8,20.626c4.686,4.686,4.769,12.201,0.184,16.786l-4.611,4.61c-4.585,4.586-12.1,4.502-16.786-0.185
	l-6.129-6.129c-4.686-4.687-4.769-12.2-0.184-16.785l4.611-4.611c4.585-4.585,12.1-4.502,16.786,0.184L32.8,20.626z"/>
<rect x="39.002" y="3.664" fill="none" width="28" height="22.333"/>
<rect x="9.732" y="0.998" transform="matrix(-0.5 0.866 -0.866 -0.5 66.3923 2.996)" fill="none" width="45.199" height="39.331"/>
<text transform="matrix(1 1.272559e-05 -1.272559e-05 1 11.1968 37.1699)" fill="#FFFFFF" font-family="'Multicolore'" font-size="24">P</text>
</svg>
