<?xml version="1.0" encoding="utf-8"?>
<!-- Generator: Adobe Illustrator 16.0.0, SVG Export Plug-In . SVG Version: 6.00 Build 0)  -->
<!DOCTYPE svg PUBLIC "-//W3C//DTD SVG 1.1//EN" "http://www.w3.org/Graphics/SVG/1.1/DTD/svg11.dtd">
<svg version="1.1" id="Capa_1" xmlns="http://www.w3.org/2000/svg" xmlns:xlink="http://www.w3.org/1999/xlink" x="0px" y="0px"
	 width="443.997px" height="635.878px" viewBox="377.915 0 443.997 635.878" enable-background="new 377.915 0 443.997 635.878"
	 xml:space="preserve">
<g>
	<path fill="#6DA8D6" d="M669.235,514.218c4.65-3.247,11.159-2.257,14.536,2.212l18.104,23.952
		c20.267-16.224,36.299-37.169,46.248-61.066l-29.365-9.17c-5.465-1.708-8.458-7.35-6.68-12.603
		c1.775-5.253,7.655-8.127,13.111-6.42l29.38,9.174c3.2-12.091,4.905-24.746,4.905-37.781c0-13.034-1.705-25.69-4.905-37.78
		l-29.38,9.175c-1.068,0.333-2.152,0.492-3.218,0.492c-4.386,0-8.468-2.687-9.894-6.913c-1.776-5.253,1.215-10.896,6.68-12.602
		l29.365-9.17c-9.95-23.896-25.982-44.844-46.248-61.067l-18.105,23.951c-2.036,2.694-5.21,4.124-8.426,4.124
		c-2.121,0-4.261-0.622-6.108-1.911c-4.65-3.247-5.68-9.502-2.302-13.97l18.121-23.971c-21.898-13.332-47.389-21.678-74.733-23.377
		v29.67c0,5.523-4.658,10.001-10.406,10.001s-10.405-4.478-10.405-10.001v-29.669c-27.346,1.701-52.836,10.047-74.735,23.378
		l18.121,23.97c3.379,4.469,2.348,10.723-2.302,13.97c-1.848,1.289-3.988,1.911-6.107,1.911c-3.218,0-6.39-1.43-8.427-4.124
		l-18.107-23.951c-20.266,16.223-36.298,37.169-46.248,61.066l29.363,9.169c5.465,1.707,8.459,7.349,6.681,12.601
		c-1.428,4.226-5.508,6.914-9.894,6.914c-1.067,0-2.151-0.159-3.218-0.492l-29.379-9.175c-3.202,12.092-4.907,24.749-4.907,37.782
		c0,13.035,1.706,25.69,4.905,37.78l29.378-9.175c5.463-1.707,11.337,1.168,13.112,6.421c1.776,5.253-1.215,10.896-6.681,12.602
		l-29.363,9.169c9.95,23.897,25.982,44.844,46.248,61.066l18.105-23.951c3.378-4.471,9.888-5.458,14.535-2.213
		c4.651,3.248,5.681,9.501,2.302,13.971l-18.119,23.969c21.898,13.331,47.387,21.679,74.733,23.379v-29.667
		c0-5.524,4.657-10.002,10.406-10.002c5.748,0,10.405,4.478,10.405,10.002v29.669c27.347-1.7,52.836-10.047,74.735-23.378
		l-18.12-23.971C663.555,523.717,664.585,517.463,669.235,514.218z M623.225,513.127c-0.838,0.199-1.681,0.295-2.507,0.295
		c-4.673,0-8.922-3.045-10.093-7.603c-0.052-0.2-0.084-0.4-0.12-0.6c-3.474,0.408-7.002,0.644-10.587,0.644
		c-3.589,0-7.118-0.234-10.595-0.644c-0.037,0.199-0.068,0.399-0.121,0.6c-1.38,5.362-7.018,8.635-12.6,7.308
		c-43.46-10.33-73.813-47.592-73.813-90.611c0-51.47,43.57-93.345,97.125-93.345s97.124,41.875,97.124,93.345
		C697.038,465.535,666.685,502.797,623.225,513.127z"/>
	<path fill="#185F8D" d="M618.228,493.709c34.148-8.116,57.998-37.392,57.998-71.193c0-40.441-34.232-73.343-76.312-73.343
		s-76.312,32.901-76.312,73.343c0,33.801,23.849,63.077,57.998,71.193c5.37,1.276,8.713,6.35,7.724,11.511
		c3.477,0.409,7.006,0.644,10.595,0.644c3.585,0,7.113-0.234,10.587-0.644C609.514,500.059,612.857,494.985,618.228,493.709z"/>
	<path fill="#F2EBD9" d="M801.1,422.516c0-106.618-90.252-193.359-201.186-193.359c-110.935,0-201.187,86.741-201.187,193.359
		c0,106.618,90.251,193.359,201.187,193.359C710.848,615.875,801.1,529.134,801.1,422.516z M705.933,562.765
		c-0.257,0.18-0.532,0.315-0.8,0.469c-29.635,20.524-65.977,32.637-105.212,32.639c-39.249-0.003-75.588-12.112-105.219-32.634
		c-0.271-0.154-0.55-0.293-0.809-0.474c-0.34-0.238-0.654-0.495-0.954-0.764c-44.49-31.6-73.399-82.355-73.399-139.485
		c0-57.129,28.909-107.885,73.399-139.486c0.3-0.268,0.614-0.525,0.954-0.763c0.331-0.231,0.67-0.433,1.017-0.622
		c29.597-20.435,65.861-32.485,105.004-32.485c39.144,0,75.409,12.052,105.008,32.489c0.346,0.187,0.684,0.39,1.012,0.619
		c0.339,0.236,0.651,0.492,0.951,0.757c44.491,31.6,73.402,82.359,73.402,139.49c0,57.131-28.91,107.889-73.402,139.49
		C706.585,562.272,706.272,562.528,705.933,562.765z"/>
	<path fill="#98D9D5" d="M489.614,237.402c9.947-5.495,20.382-10.26,31.217-14.244V201.32c-5.747-0.001-10.405-4.478-10.405-10.001
		v-56.18c0-47.423,40.144-86.006,89.488-86.006c49.343,0,89.485,38.583,89.485,86.006v56.18c0,5.523-4.657,10.001-10.406,10.001
		c-0.004,0-0.004,21.836-0.004,21.836c10.836,3.983,21.274,8.748,31.224,14.245V135.139c0-58.453-49.479-106.008-110.299-106.008
		c-60.82,0-110.3,47.556-110.3,106.008V237.402z"/>
	<path fill="#082947" d="M731.024,250.453V135.139c0-69.482-58.817-126.011-131.11-126.011
		c-72.295,0-131.113,56.529-131.113,126.011v115.315c-55.066,38.865-90.886,101.514-90.886,172.062
		c0,117.648,99.587,213.362,221.999,213.362c122.411,0,221.998-95.714,221.998-213.362
		C821.912,351.968,786.093,289.318,731.024,250.453z M398.728,422.516c0-106.618,90.251-193.359,201.187-193.359
		c110.934,0,201.186,86.741,201.186,193.359c0,106.618-90.252,193.359-201.186,193.359
		C488.979,615.875,398.728,529.134,398.728,422.516z M599.914,29.131c60.819,0,110.299,47.556,110.299,106.008v102.262
		c-9.949-5.497-20.388-10.261-31.224-14.245c-24.578-9.036-51.233-14.002-79.075-14.002c-27.846,0-54.504,4.968-79.085,14.004
		c-10.833,3.983-21.27,8.747-31.217,14.244V135.139C489.614,76.687,539.094,29.131,599.914,29.131z"/>
	<path fill="#082947" d="M780.287,422.516c0-57.131-28.911-107.89-73.404-139.49c-0.299-0.266-0.61-0.521-0.95-0.757
		c-0.327-0.229-0.667-0.433-1.012-0.619c-29.598-20.438-65.863-32.489-105.007-32.489c-39.143,0-75.408,12.05-105.004,32.486
		c-0.347,0.189-0.688,0.391-1.017,0.622c-0.34,0.237-0.654,0.495-0.954,0.762c-44.49,31.6-73.399,82.356-73.399,139.485
		c0,57.129,28.909,107.885,73.399,139.487c0.3,0.269,0.614,0.525,0.954,0.762c0.261,0.183,0.539,0.32,0.809,0.476
		c29.631,20.521,65.971,32.632,105.2,32.633c39.255-0.001,75.597-12.113,105.231-32.639c0.268-0.153,0.543-0.289,0.8-0.47
		c0.34-0.235,0.652-0.49,0.952-0.758C751.377,530.405,780.287,479.647,780.287,422.516z M666.934,528.187l18.119,23.97
		c-21.898,13.331-47.388,21.678-74.734,23.377v-29.667c0-5.524-4.658-10.002-10.406-10.002c-5.749,0-10.405,4.478-10.405,10.002
		v29.669c-27.345-1.7-52.835-10.047-74.734-23.378l18.12-23.971c3.379-4.468,2.347-10.722-2.302-13.969
		c-4.646-3.244-11.157-2.257-14.535,2.212l-18.105,23.952c-20.266-16.224-36.298-37.169-46.248-61.066l29.364-9.169
		c5.465-1.707,8.458-7.349,6.68-12.602c-1.774-5.253-7.65-8.128-13.112-6.421l-29.378,9.175
		c-3.198-12.093-4.903-24.748-4.903-37.783c0-13.034,1.706-25.69,4.905-37.78l29.378,9.175c1.068,0.333,2.152,0.492,3.218,0.492
		c4.386,0,8.467-2.687,9.894-6.913c1.776-5.253-1.215-10.896-6.681-12.602l-29.363-9.168c9.95-23.896,25.98-44.844,46.248-61.066
		l18.106,23.951c2.037,2.694,5.209,4.124,8.427,4.124c2.12,0,4.261-0.622,6.107-1.911c4.651-3.247,5.681-9.501,2.302-13.97
		l-18.121-23.97c21.899-13.331,47.389-21.677,74.735-23.378v29.667c0,5.523,4.657,10.001,10.406,10.001
		c5.748,0,10.405-4.478,10.405-10.001v-29.669c27.346,1.701,52.835,10.047,74.733,23.378l-18.12,23.971
		c-3.38,4.468-2.348,10.723,2.302,13.97c1.846,1.289,3.986,1.911,6.107,1.911c3.216,0,6.391-1.431,8.426-4.124l18.105-23.951
		c20.267,16.223,36.299,37.169,46.248,61.067l-29.365,9.17c-5.465,1.708-8.457,7.349-6.681,12.602
		c1.428,4.226,5.509,6.913,9.895,6.913c1.067,0,2.151-0.158,3.218-0.491l29.38-9.175c3.203,12.088,4.908,24.745,4.908,37.778
		c0,13.035-1.705,25.69-4.905,37.781l-29.38-9.174c-5.458-1.707-11.336,1.167-13.111,6.42c-1.776,5.253,1.215,10.896,6.68,12.603
		l29.365,9.17c-9.95,23.897-25.982,44.845-46.248,61.066l-18.105-23.952c-3.376-4.469-9.885-5.459-14.535-2.212
		C664.585,517.463,663.555,523.717,666.934,528.187z"/>
	<path fill="#082947" d="M531.238,191.319v-56.18c0-36.394,30.808-66.003,68.676-66.003c37.867,0,68.673,29.609,68.673,66.003v56.18
		c0,5.522,4.657,9.999,10.402,10.001c5.752,0,10.41-4.478,10.41-10.001v-56.18c0-47.423-40.143-86.006-89.485-86.006
		c-49.344,0-89.488,38.583-89.488,86.006v56.18c0,5.523,4.656,10,10.405,10.001C526.579,201.32,531.238,196.842,531.238,191.319z"/>
	<path fill="#082947" d="M697.038,422.516c0-51.47-43.569-93.345-97.124-93.345s-97.125,41.875-97.125,93.345
		c0,43.019,30.353,80.281,73.813,90.611c5.582,1.327,11.221-1.945,12.6-7.308c0.052-0.2,0.084-0.4,0.121-0.6
		c0.989-5.161-2.354-10.234-7.724-11.511c-34.149-8.116-57.998-37.392-57.998-71.193c0-40.441,34.233-73.343,76.312-73.343
		s76.312,32.901,76.312,73.343c0,33.801-23.85,63.077-57.998,71.193c-5.372,1.276-8.714,6.35-7.724,11.512
		c0.037,0.2,0.068,0.399,0.12,0.6c1.172,4.557,5.42,7.603,10.092,7.603c0.826,0,1.669-0.097,2.508-0.294
		C666.685,502.797,697.038,465.535,697.038,422.516z"/>
</g>
</svg>
