<?xml version="1.0" encoding="utf-8"?>
<!-- Generator: Adobe Illustrator 16.0.0, SVG Export Plug-In . SVG Version: 6.00 Build 0)  -->
<!DOCTYPE svg PUBLIC "-//W3C//DTD SVG 1.1//EN" "http://www.w3.org/Graphics/SVG/1.1/DTD/svg11.dtd">
<svg version="1.1" id="Layer_1" xmlns="http://www.w3.org/2000/svg" xmlns:xlink="http://www.w3.org/1999/xlink" x="0px" y="0px"
	 width="886px" height="742px" viewBox="141.5 59.5 886 742" enable-background="new 141.5 59.5 886 742" xml:space="preserve">
<path fill="#E4EAF6" d="M984.412,118.345c0-8.156-6.636-14.794-14.793-14.794H200.38c-8.156,0-14.794,6.636-14.794,14.794V236.69
	c0,8.156,6.636,14.793,14.794,14.793h769.239c8.155,0,14.793-6.636,14.793-14.793V118.345L984.412,118.345z M333.517,177.519
	c0,8.169-6.624,14.794-14.793,14.794h-3.965l1.982,3.432c4.085,7.075,1.661,16.123-5.415,20.207
	c-7.075,4.085-16.123,1.661-20.207-5.415l-1.982-3.432l-1.982,3.432c-4.085,7.075-13.133,9.499-20.207,5.415
	c-7.073-4.083-9.499-13.133-5.415-20.207l1.982-3.432h-3.965c-8.169,0-14.793-6.625-14.793-14.794l0,0
	c0-8.169,6.624-14.794,14.793-14.794h3.965l-1.982-3.432c-4.085-7.075-1.661-16.123,5.415-20.207
	c7.075-4.084,16.123-1.661,20.207,5.414l1.982,3.432l1.982-3.432c4.085-7.075,13.133-9.498,20.207-5.414
	c7.073,4.083,9.499,13.133,5.415,20.207l-1.982,3.432h3.965C326.893,162.725,333.517,169.349,333.517,177.519L333.517,177.519z
	 M451.862,177.519c0,8.169-6.625,14.794-14.794,14.794h-3.965l1.981,3.432c4.085,7.075,1.66,16.123-5.415,20.207
	c-7.075,4.085-16.122,1.661-20.206-5.415l-1.981-3.432l-1.982,3.432c-4.086,7.075-13.133,9.499-20.207,5.415
	c-7.075-4.085-9.499-13.133-5.415-20.207l1.982-3.432h-3.965c-8.169,0-14.794-6.625-14.794-14.794l0,0
	c0-8.169,6.625-14.794,14.794-14.794h3.965l-1.982-3.432c-4.085-7.075-1.661-16.123,5.415-20.207
	c7.075-4.086,16.123-1.661,20.207,5.414l1.982,3.432l1.981-3.432c4.086-7.075,13.133-9.498,20.206-5.414
	c7.074,4.083,9.499,13.133,5.415,20.207l-1.981,3.432h3.965C445.237,162.725,451.862,169.349,451.862,177.519L451.862,177.519z
	 M570.205,177.519c0,8.169-6.624,14.794-14.793,14.794h-3.965l1.981,3.432c4.085,7.075,1.66,16.123-5.415,20.207
	c-7.074,4.084-16.122,1.661-20.206-5.415l-1.981-3.432l-1.982,3.432c-4.086,7.075-13.134,9.499-20.207,5.415
	c-7.074-4.085-9.498-13.133-5.414-20.207l1.982-3.432h-3.965c-8.17,0-14.794-6.625-14.794-14.794l0,0
	c0-8.169,6.624-14.794,14.794-14.794h3.965l-1.982-3.432c-4.086-7.075-1.66-16.123,5.414-20.207
	c7.075-4.086,16.123-1.661,20.207,5.414l1.982,3.432l1.981-3.432c4.085-7.075,13.134-9.498,20.206-5.414
	c7.075,4.085,9.498,13.133,5.415,20.207l-1.981,3.432h3.965C563.583,162.725,570.205,169.349,570.205,177.519L570.205,177.519z
	 M688.551,177.519c0,8.169-6.625,14.794-14.794,14.794h-3.963l1.982,3.432c4.085,7.075,1.659,16.123-5.415,20.207
	c-7.075,4.084-16.122,1.661-20.208-5.415l-1.982-3.432l-1.981,3.432c-4.086,7.075-13.134,9.499-20.208,5.415
	c-7.075-4.085-9.498-13.133-5.415-20.207l1.982-3.432h-3.966c-8.169,0-14.793-6.625-14.793-14.794l0,0
	c0-8.169,6.624-14.794,14.793-14.794h3.966l-1.982-3.432c-4.085-7.075-1.66-16.123,5.415-20.207
	c7.074-4.086,16.122-1.661,20.206,5.414l1.981,3.432l1.982-3.432c4.086-7.075,13.134-9.498,20.209-5.414
	c7.074,4.085,9.498,13.133,5.414,20.207l-1.982,3.432h3.965C681.928,162.725,688.551,169.349,688.551,177.519L688.551,177.519z
	 M806.896,177.519c0,8.169-6.625,14.794-14.795,14.794h-3.965l1.982,3.432c4.086,7.075,1.661,16.123-5.414,20.207
	s-16.123,1.661-20.208-5.415l-1.982-3.432l-1.981,3.432c-4.086,7.075-13.134,9.499-20.207,5.415
	c-7.073-4.083-9.498-13.133-5.414-20.207l1.981-3.432h-3.965c-8.17,0-14.794-6.625-14.794-14.794l0,0
	c0-8.169,6.624-14.794,14.794-14.794h3.965l-1.981-3.432c-4.086-7.075-1.661-16.123,5.414-20.207
	c7.075-4.086,16.123-1.661,20.207,5.414l1.981,3.432l1.982-3.432c4.085-7.075,13.133-9.498,20.208-5.414
	c7.075,4.085,9.498,13.133,5.414,20.207l-1.982,3.432h3.965C800.271,162.725,806.896,169.349,806.896,177.519L806.896,177.519z
	 M925.239,177.519c0,8.169-6.624,14.794-14.794,14.794h-3.965l1.981,3.432c4.086,7.075,1.66,16.123-5.414,20.207
	c-7.075,4.085-16.123,1.661-20.207-5.415l-1.981-3.432l-1.982,3.432c-4.086,7.075-13.133,9.499-20.208,5.415
	c-7.075-4.085-9.499-13.133-5.415-20.207l1.982-3.432h-3.965c-8.17,0-14.794-6.625-14.794-14.794l0,0
	c0-8.169,6.624-14.794,14.794-14.794h3.965l-1.982-3.432c-4.085-7.075-1.66-16.123,5.415-20.207l0,0
	c7.075-4.086,16.122-1.661,20.208,5.414l1.982,3.432l1.981-3.432c4.086-7.075,13.133-9.498,20.207-5.414l0,0
	c7.075,4.085,9.498,13.133,5.414,20.207l-1.981,3.432h3.965C918.616,162.725,925.239,169.349,925.239,177.519L925.239,177.519z"/>
<path fill="#AFBBD0" d="M318.723,162.725h-3.965l1.982-3.432c4.085-7.075,1.661-16.123-5.415-20.207
	c-7.075-4.086-16.123-1.661-20.207,5.414l-1.982,3.432l-1.982-3.432c-4.085-7.075-13.133-9.498-20.207-5.414
	c-7.073,4.083-9.499,13.133-5.415,20.207l1.982,3.432h-3.965c-8.169,0-14.793,6.625-14.793,14.794l0,0
	c0,8.169,6.624,14.794,14.793,14.794h3.965l-1.982,3.432c-4.085,7.075-1.661,16.123,5.415,20.207
	c7.075,4.084,16.123,1.661,20.207-5.415l1.982-3.432l1.982,3.432c4.085,7.075,13.133,9.499,20.207,5.415
	c7.073-4.083,9.499-13.133,5.415-20.207l-1.982-3.432h3.965c8.169,0,14.793-6.625,14.793-14.794l0,0
	C333.517,169.349,326.893,162.725,318.723,162.725z"/>
<path fill="#0088CC" d="M1012.602,107.255c-0.912-3.544-2.252-6.917-3.959-10.063c-0.682-1.257-1.426-2.479-2.223-3.66
	c-3.188-4.721-7.264-8.796-11.988-11.987c-1.18-0.797-2.4-1.54-3.658-2.222c-3.146-1.709-6.521-3.046-10.063-3.958
	c-3.543-0.913-7.26-1.397-11.089-1.397H200.38c-3.83,0-7.546,0.484-11.09,1.397c-3.544,0.912-6.919,2.25-10.063,3.958
	c-1.257,0.682-2.478,1.426-3.66,2.222c-4.722,3.189-8.796,7.265-11.988,11.987c-0.794,1.182-1.539,2.401-2.221,3.66
	c-1.709,3.144-3.046,6.519-3.958,10.063c-0.915,3.544-1.399,7.261-1.399,11.09V236.69c0,3.829,0.484,7.546,1.397,11.09
	c0.912,3.544,2.25,6.917,3.958,10.063c0.682,1.257,1.426,2.479,2.222,3.66c3.189,4.721,7.264,8.796,11.988,11.987
	c1.18,0.798,2.401,1.54,3.66,2.222c3.144,1.709,6.519,3.046,10.063,3.958c3.542,0.914,7.259,1.398,11.088,1.398h769.239
	c3.829,0,7.546-0.484,11.09-1.398c3.545-0.912,6.92-2.25,10.063-3.958c1.257-0.682,2.479-1.426,3.659-2.222
	c4.723-3.189,8.796-7.265,11.988-11.987c0.798-1.18,1.54-2.401,2.222-3.66c1.709-3.144,3.047-6.519,3.959-10.063
	c0.911-3.544,1.396-7.261,1.396-11.09V118.345C1013.998,114.516,1013.514,110.799,1012.602,107.255z M969.619,251.484H200.38
	c-8.156,0-14.794-6.636-14.794-14.793V118.345c0-8.156,6.636-14.794,14.794-14.794h769.239c8.155,0,14.793,6.636,14.793,14.794
	V236.69C984.412,244.846,977.776,251.484,969.619,251.484z"/>
<g>
	<path fill="#AFBBD0" d="M437.068,162.725h-3.965l1.981-3.432c4.085-7.075,1.66-16.123-5.415-20.207
		c-7.075-4.086-16.122-1.661-20.206,5.414l-1.981,3.432L405.5,144.5c-4.086-7.075-13.133-9.498-20.207-5.414
		c-7.075,4.085-9.499,13.133-5.415,20.207l1.982,3.432h-3.965c-8.169,0-14.794,6.625-14.794,14.794l0,0
		c0,8.169,6.625,14.794,14.794,14.794h3.965l-1.982,3.432c-4.085,7.075-1.661,16.123,5.415,20.207
		c7.075,4.085,16.123,1.661,20.207-5.415l1.982-3.432l1.981,3.432c4.086,7.075,13.133,9.499,20.206,5.415
		c7.074-4.083,9.499-13.133,5.415-20.207l-1.981-3.432h3.965c8.169,0,14.794-6.625,14.794-14.794l0,0
		C451.862,169.349,445.237,162.725,437.068,162.725z"/>
	<path fill="#AFBBD0" d="M555.413,162.725h-3.965l1.981-3.432c4.086-7.075,1.661-16.123-5.414-20.207
		c-7.074-4.084-16.123-1.661-20.207,5.414l-1.981,3.432l-1.982-3.432c-4.085-7.075-13.133-9.498-20.206-5.414
		c-7.074,4.085-9.498,13.133-5.415,20.207l1.982,3.432h-3.965c-8.169,0-14.793,6.625-14.793,14.794l0,0
		c0,8.169,6.624,14.794,14.793,14.794h3.965l-1.982,3.432c-4.085,7.075-1.659,16.123,5.415,20.207
		c7.075,4.085,16.122,1.661,20.206-5.415l1.982-3.432l1.981,3.432c4.086,7.075,13.135,9.499,20.207,5.415
		c7.075-4.085,9.498-13.133,5.414-20.207l-1.981-3.432h3.965c8.17,0,14.794-6.625,14.794-14.794l0,0
		C570.205,169.349,563.583,162.725,555.413,162.725z"/>
	<path fill="#AFBBD0" d="M673.759,162.725h-3.965l1.982-3.432c4.085-7.075,1.659-16.123-5.415-20.207
		c-7.075-4.084-16.122-1.661-20.208,5.414l-1.982,3.432l-1.981-3.432c-4.087-7.075-13.134-9.498-20.209-5.414
		c-7.074,4.085-9.497,13.133-5.414,20.207l1.982,3.432h-3.966c-8.169,0-14.793,6.625-14.793,14.794l0,0
		c0,8.169,6.624,14.794,14.793,14.794h3.966l-1.982,3.432c-4.086,7.075-1.66,16.123,5.414,20.207
		c7.075,4.085,16.122,1.661,20.206-5.415l1.982-3.432l1.982,3.432c4.086,7.075,13.134,9.499,20.209,5.415
		c7.074-4.085,9.497-13.133,5.413-20.207l-1.981-3.432h3.965c8.169,0,14.794-6.625,14.794-14.794l0,0
		C688.551,169.349,681.928,162.725,673.759,162.725z"/>
	<path fill="#AFBBD0" d="M792.102,162.725h-3.965l1.982-3.432c4.086-7.075,1.661-16.123-5.414-20.207s-16.123-1.661-20.208,5.414
		l-1.982,3.432l-1.981-3.432c-4.086-7.075-13.134-9.498-20.207-5.414c-7.073,4.083-9.498,13.133-5.414,20.207l1.981,3.432h-3.965
		c-8.17,0-14.794,6.625-14.794,14.794l0,0c0,8.169,6.624,14.794,14.794,14.794h3.965l-1.981,3.432
		c-4.086,7.075-1.661,16.123,5.414,20.207c7.075,4.085,16.123,1.661,20.207-5.415l1.981-3.432l1.982,3.432
		c4.085,7.075,13.133,9.499,20.208,5.415c7.075-4.085,9.498-13.133,5.414-20.207l-1.982-3.432h3.965
		c8.17,0,14.795-6.625,14.795-14.794l0,0C806.896,169.349,800.271,162.725,792.102,162.725z"/>
	<path fill="#AFBBD0" d="M910.447,162.725h-3.965l1.981-3.432c4.085-7.075,1.66-16.123-5.415-20.207l0,0
		c-7.075-4.086-16.122-1.661-20.206,5.414l-1.981,3.432l-1.982-3.432c-4.086-7.075-13.133-9.498-20.209-5.414l0,0
		c-7.074,4.085-9.498,13.133-5.414,20.207l1.982,3.432h-3.965c-8.17,0-14.795,6.625-14.795,14.794l0,0
		c0,8.169,6.625,14.794,14.795,14.794h3.965l-1.982,3.432c-4.085,7.075-1.66,16.123,5.414,20.207
		c7.076,4.084,16.123,1.661,20.209-5.415l1.982-3.432l1.981,3.432c4.086,7.075,13.134,9.499,20.206,5.415
		c7.074-4.083,9.499-13.133,5.415-20.207l-1.981-3.432h3.965c8.169,0,14.793-6.625,14.793-14.794l0,0
		C925.239,169.349,918.616,162.725,910.447,162.725z"/>
</g>
<path fill="#E4EAF6" d="M969.619,325.448H200.38c-24.51,0-44.38,19.869-44.38,44.379v118.346c0,24.51,19.87,44.379,44.38,44.379
	h769.239c24.51,0,44.379-19.869,44.379-44.379V369.827C1013.998,345.317,994.129,325.448,969.619,325.448z M333.517,429.001
	c0,8.169-6.624,14.794-14.793,14.794h-3.965l1.982,3.432c4.085,7.075,1.661,16.123-5.415,20.207
	c-7.075,4.085-16.123,1.66-20.207-5.415l-1.982-3.432l-1.982,3.432c-4.085,7.075-13.133,9.499-20.207,5.415
	c-7.075-4.086-9.499-13.134-5.415-20.207l1.982-3.432h-3.965c-8.169,0-14.793-6.625-14.793-14.794l0,0
	c0-8.17,6.624-14.794,14.793-14.794h3.965l-1.982-3.432c-4.085-7.075-1.661-16.123,5.415-20.207
	c7.076-4.084,16.123-1.66,20.207,5.415l1.982,3.432l1.982-3.432c4.085-7.075,13.133-9.499,20.207-5.415
	c7.074,4.084,9.499,13.133,5.415,20.207l-1.982,3.432h3.965C326.893,414.207,333.517,420.831,333.517,429.001L333.517,429.001z
	 M451.862,429.001c0,8.169-6.625,14.794-14.794,14.794h-3.965l1.981,3.432c4.085,7.075,1.66,16.123-5.415,20.207
	c-7.075,4.085-16.122,1.66-20.206-5.415l-1.981-3.432l-1.982,3.432c-4.086,7.075-13.133,9.499-20.207,5.415
	c-7.075-4.086-9.499-13.134-5.415-20.207l1.982-3.432h-3.965c-8.169,0-14.794-6.625-14.794-14.794l0,0
	c0-8.17,6.625-14.794,14.794-14.794h3.965l-1.982-3.432c-4.085-7.075-1.661-16.123,5.415-20.207
	c7.075-4.085,16.123-1.66,20.207,5.415l1.982,3.432l1.981-3.432c4.086-7.075,13.133-9.499,20.206-5.415
	c7.074,4.084,9.499,13.133,5.415,20.207l-1.981,3.432h3.965C445.237,414.207,451.862,420.831,451.862,429.001L451.862,429.001z
	 M570.205,429.001c0,8.169-6.624,14.794-14.793,14.794h-3.965l1.981,3.432c4.085,7.075,1.66,16.123-5.415,20.207
	c-7.074,4.085-16.122,1.66-20.206-5.415l-1.981-3.432l-1.982,3.432c-4.086,7.075-13.134,9.499-20.207,5.415
	c-7.074-4.086-9.498-13.134-5.414-20.207l1.982-3.432h-3.965c-8.17,0-14.794-6.625-14.794-14.794l0,0
	c0-8.17,6.624-14.794,14.794-14.794h3.965l-1.982-3.432c-4.086-7.075-1.66-16.123,5.414-20.207
	c7.075-4.085,16.123-1.66,20.207,5.415l1.982,3.432l1.981-3.432c4.085-7.075,13.134-9.499,20.206-5.415
	c7.075,4.086,9.498,13.133,5.415,20.207l-1.981,3.432h3.965C563.583,414.207,570.205,420.831,570.205,429.001L570.205,429.001z
	 M688.551,429.001c0,8.169-6.625,14.794-14.794,14.794h-3.963l1.982,3.432c4.085,7.075,1.659,16.123-5.415,20.207
	c-7.075,4.085-16.122,1.66-20.208-5.415l-1.982-3.432l-1.981,3.432c-4.086,7.075-13.134,9.499-20.208,5.415
	c-7.075-4.086-9.498-13.134-5.415-20.207l1.982-3.432h-3.966c-8.169,0-14.793-6.625-14.793-14.794l0,0
	c0-8.17,6.624-14.794,14.793-14.794h3.966l-1.982-3.432c-4.085-7.075-1.66-16.123,5.415-20.207
	c7.074-4.085,16.122-1.66,20.206,5.415l1.981,3.432l1.982-3.432c4.086-7.075,13.134-9.499,20.209-5.415
	c7.074,4.086,9.498,13.133,5.414,20.207l-1.982,3.432h3.965C681.928,414.207,688.551,420.831,688.551,429.001L688.551,429.001z"/>
<g>
	<path fill="#0088CC" d="M969.619,576.93H703.345c-24.511,0-44.38,19.87-44.38,44.38v118.347c0,24.51,19.869,44.379,44.38,44.379
		H969.62c24.511,0,44.38-19.869,44.38-44.379V621.31C1013.998,596.8,994.129,576.93,969.619,576.93z M836.48,695.275
		c0,24.472-19.907,44.38-44.38,44.38c-24.471,0-44.379-19.908-44.379-44.38v-29.586c0-24.473,19.908-44.381,44.379-44.381
		c24.473,0,44.38,19.908,44.38,44.381V695.275z M922.754,716.656c4.528,6.797,2.694,15.984-4.104,20.516
		c-2.521,1.682-5.375,2.484-8.191,2.484c-4.783,0-9.47-2.312-12.322-6.589l-17.276-25.918v17.712
		c0,8.169-6.624,14.794-14.794,14.794s-14.795-6.625-14.795-14.794v-88.761c0-8.169,6.625-14.793,14.795-14.793
		s14.794,6.624,14.794,14.793v17.712l17.278-25.918c4.521-6.812,13.703-8.661,20.516-4.104c6.797,4.527,8.632,13.716,4.104,20.515
		l-24.117,36.176L922.754,716.656z"/>
	<path fill="#0088CC" d="M792.102,650.896c-8.153,0-14.793,6.638-14.793,14.794v29.586c0,8.153,6.639,14.794,14.793,14.794
		c8.156,0,14.795-6.639,14.795-14.794V665.69C806.896,657.535,800.256,650.896,792.102,650.896z"/>
</g>
<g>
	<path fill="#AFBBD0" d="M318.723,414.207h-3.965l1.982-3.432c4.085-7.075,1.661-16.123-5.415-20.207
		c-7.075-4.085-16.123-1.66-20.207,5.415l-1.982,3.432l-1.982-3.432c-4.085-7.075-13.133-9.499-20.207-5.415
		c-7.074,4.084-9.499,13.133-5.415,20.207l1.982,3.432h-3.965c-8.169,0-14.793,6.624-14.793,14.794l0,0
		c0,8.169,6.624,14.794,14.793,14.794h3.965l-1.982,3.432c-4.085,7.075-1.661,16.123,5.415,20.207
		c7.075,4.085,16.123,1.66,20.207-5.415l1.982-3.432l1.982,3.432c4.085,7.075,13.133,9.499,20.207,5.415
		c7.075-4.086,9.499-13.134,5.415-20.207l-1.982-3.432h3.965c8.169,0,14.793-6.625,14.793-14.794l0,0
		C333.517,420.831,326.893,414.207,318.723,414.207z"/>
	<path fill="#AFBBD0" d="M437.068,414.207h-3.965l1.981-3.432c4.085-7.075,1.66-16.123-5.415-20.207
		c-7.075-4.085-16.122-1.66-20.206,5.415l-1.981,3.432l-1.982-3.432c-4.086-7.075-13.133-9.499-20.207-5.415
		c-7.075,4.086-9.499,13.133-5.415,20.207l1.982,3.432h-3.965c-8.169,0-14.794,6.624-14.794,14.794l0,0
		c0,8.169,6.625,14.794,14.794,14.794h3.965l-1.982,3.432c-4.085,7.075-1.661,16.123,5.415,20.207
		c7.075,4.085,16.123,1.66,20.207-5.415l1.982-3.432l1.981,3.432c4.086,7.075,13.133,9.499,20.206,5.415
		c7.075-4.086,9.499-13.134,5.415-20.207l-1.981-3.432h3.965c8.169,0,14.794-6.625,14.794-14.794l0,0
		C451.862,420.831,445.237,414.207,437.068,414.207z"/>
	<path fill="#AFBBD0" d="M555.413,414.207h-3.965l1.981-3.432c4.086-7.075,1.661-16.123-5.414-20.207
		c-7.074-4.084-16.123-1.66-20.207,5.415l-1.981,3.432l-1.982-3.432c-4.085-7.075-13.133-9.499-20.206-5.415
		c-7.074,4.086-9.498,13.133-5.415,20.207l1.982,3.432h-3.965c-8.169,0-14.793,6.624-14.793,14.794l0,0
		c0,8.169,6.624,14.794,14.793,14.794h3.965l-1.982,3.432c-4.085,7.075-1.659,16.123,5.415,20.207
		c7.075,4.085,16.122,1.66,20.206-5.415l1.982-3.432l1.981,3.432c4.086,7.075,13.135,9.499,20.207,5.415
		c7.075-4.086,9.498-13.134,5.414-20.207l-1.981-3.432h3.965c8.17,0,14.794-6.625,14.794-14.794l0,0
		C570.205,420.831,563.583,414.207,555.413,414.207z"/>
	<path fill="#AFBBD0" d="M673.759,414.207h-3.965l1.982-3.432c4.085-7.075,1.659-16.123-5.415-20.207
		c-7.075-4.084-16.122-1.66-20.208,5.415l-1.982,3.432l-1.981-3.432c-4.087-7.075-13.134-9.499-20.209-5.415
		c-7.074,4.086-9.497,13.133-5.414,20.207l1.982,3.432h-3.966c-8.169,0-14.793,6.624-14.793,14.794l0,0
		c0,8.169,6.624,14.794,14.793,14.794h3.966l-1.982,3.432c-4.086,7.075-1.66,16.123,5.414,20.207
		c7.075,4.085,16.122,1.66,20.206-5.415l1.982-3.432l1.982,3.432c4.086,7.075,13.134,9.499,20.209,5.415
		c7.074-4.086,9.497-13.134,5.413-20.207l-1.981-3.432h3.965c8.169,0,14.794-6.625,14.794-14.794l0,0
		C688.551,420.831,681.928,414.207,673.759,414.207z"/>
</g>
<g>
	<path fill="#FFFFFF" d="M918.651,623.795c-6.812-4.558-15.991-2.71-20.516,4.104l-17.276,25.915v-17.712
		c0-8.169-6.624-14.794-14.795-14.794c-8.168,0-14.793,6.625-14.793,14.794v88.761c0,8.169,6.625,14.793,14.793,14.793
		c8.171,0,14.795-6.624,14.795-14.793v-17.712l17.278,25.918c2.854,4.275,7.541,6.589,12.322,6.589c2.816,0,5.669-0.803,8.19-2.485
		c6.797-4.526,8.632-13.716,4.104-20.515l-24.116-36.175l24.116-36.176C927.283,637.513,925.448,628.324,918.651,623.795z"/>
	<path fill="#FFFFFF" d="M792.102,621.31c-24.471,0-44.379,19.908-44.379,44.381v29.586c0,24.472,19.908,44.38,44.379,44.38
		c24.473,0,44.381-19.908,44.381-44.38V665.69C836.48,641.218,816.573,621.31,792.102,621.31z M806.896,695.275
		c0,8.153-6.639,14.794-14.795,14.794c-8.154,0-14.793-6.639-14.793-14.794v-29.586c0-8.154,6.639-14.795,14.793-14.795
		c8.156,0,14.795,6.639,14.795,14.795V695.275z"/>
</g>
</svg>
