<?xml version="1.0" encoding="utf-8"?>
<!-- Generator: Adobe Illustrator 16.0.0, SVG Export Plug-In . SVG Version: 6.00 Build 0)  -->
<!DOCTYPE svg PUBLIC "-//W3C//DTD SVG 1.1//EN" "http://www.w3.org/Graphics/SVG/1.1/DTD/svg11.dtd">
<svg version="1.1" id="Capa_1" xmlns="http://www.w3.org/2000/svg" xmlns:xlink="http://www.w3.org/1999/xlink" x="0px" y="0px"
	 width="1170px" height="858px" viewBox="0 0 1170 858" enable-background="new 0 0 1170 858" xml:space="preserve">
<path fill="#556080" d="M585,0c0,0-98.626,118.345-325.448,118.345v282.326c0,147.429,64.024,289.604,179.943,380.701
	C480.517,813.621,528.904,841.357,585,858c56.096-16.643,104.469-44.379,145.505-76.628
	C846.424,690.275,910.448,548.1,910.448,400.671V118.345C683.626,118.345,585,0,585,0z"/>
<path fill="#0088CC" d="M585,764.227c-31.406-12.322-61.806-29.956-90.652-52.634c-91.451-71.865-146.037-188.095-146.037-310.922
	v-199.07C457.646,187.65,535.28,149.617,585,115.83c49.72,33.787,127.354,71.82,236.689,85.771v199.07
	c0,122.827-54.586,239.057-146.022,310.922C646.806,734.271,616.406,751.904,585,764.227z"/>
<path fill="#FFFFFF" d="M772.266,299.531c-6.153-5.385-15.488-4.749-20.873,1.391L554.689,525.702L447.527,418.541
	c-5.784-5.784-15.133-5.784-20.917,0s-5.784,15.134,0,20.918l118.345,118.345c2.781,2.781,6.539,4.334,10.459,4.334
	c0.162,0,0.325,0,0.488,0c4.098-0.133,7.943-1.967,10.636-5.044l207.104-236.689C779.026,314.25,778.405,304.901,772.266,299.531z"
	/>
</svg>
