<?xml version="1.0" encoding="utf-8"?>
<!-- Generator: Adobe Illustrator 16.0.0, SVG Export Plug-In . SVG Version: 6.00 Build 0)  -->
<!DOCTYPE svg PUBLIC "-//W3C//DTD SVG 1.1//EN" "http://www.w3.org/Graphics/SVG/1.1/DTD/svg11.dtd">
<svg version="1.1" id="Capa_1" xmlns="http://www.w3.org/2000/svg" xmlns:xlink="http://www.w3.org/1999/xlink" x="0px" y="0px"
	 width="1170px" height="858px" viewBox="0 0 1170 858" enable-background="new 0 0 1170 858" xml:space="preserve">
<g id="XMLID_5_">
	<path id="XMLID_148_" fill="#556180" d="M585.143,729.422c-165.606,0-300.35-134.743-300.35-300.351
		c0-165.607,134.743-300.35,300.35-300.35c165.607,0,300.351,134.743,300.351,300.35
		C885.493,594.679,750.75,729.422,585.143,729.422"/>
	<path id="XMLID_147_" fill="#FFFFFF" d="M585.143,214.536c-7.895,0-14.302-6.393-14.302-14.302v-28.605
		c0-7.909,6.407-14.302,14.302-14.302c7.896,0,14.303,6.393,14.303,14.302v28.605C599.445,208.143,593.038,214.536,585.143,214.536"
		/>
	<path id="XMLID_146_" fill="#FFFFFF" d="M585.143,700.816c-7.895,0-14.302-6.393-14.302-14.302V657.91
		c0-7.91,6.407-14.303,14.302-14.303c7.896,0,14.303,6.393,14.303,14.303v28.604C599.445,694.424,593.038,700.816,585.143,700.816"
		/>
	<path id="XMLID_145_" fill="#FFFFFF" d="M842.586,443.374h-28.604c-7.896,0-14.303-6.394-14.303-14.303s6.407-14.302,14.303-14.302
		h28.604c7.895,0,14.303,6.393,14.303,14.302S850.48,443.374,842.586,443.374"/>
	<path id="XMLID_144_" fill="#FFFFFF" d="M356.305,443.374H327.7c-7.895,0-14.302-6.394-14.302-14.303s6.407-14.302,14.302-14.302
		h28.604c7.895,0,14.303,6.393,14.303,14.302S364.2,443.374,356.305,443.374"/>
	<path id="XMLID_141_" fill="#FFFFFF" d="M585.143,471.979c-31.551,0-57.209-25.658-57.209-57.209
		c0-31.552,25.658-57.21,57.209-57.21c31.552,0,57.21,25.658,57.21,57.21C642.353,446.32,616.694,471.979,585.143,471.979
		 M585.143,386.164c-15.775,0-28.604,12.829-28.604,28.605c0,15.775,12.829,28.604,28.604,28.604
		c15.776,0,28.605-12.829,28.605-28.604C613.748,398.993,600.919,386.164,585.143,386.164"/>
	<path id="XMLID_140_" fill="#FFFFFF" d="M585.143,386.164c-7.895,0-14.302-6.393-14.302-14.302v-85.814
		c0-7.909,6.407-14.303,14.302-14.303c7.896,0,14.303,6.394,14.303,14.303v85.814C599.445,379.771,593.038,386.164,585.143,386.164"
		/>
	<path id="XMLID_139_" fill="#FFFFFF" d="M427.816,586.397c-3.661,0-7.322-1.401-10.111-4.19c-5.593-5.592-5.593-14.631,0-20.224
		l126.991-126.991c5.592-5.592,14.631-5.592,20.224,0c5.592,5.593,5.592,14.632,0,20.224L437.929,582.207
		C435.14,584.996,431.479,586.397,427.816,586.397"/>
	<path id="XMLID_138_" fill="#D8635F" d="M170.374,443.374c-7.895,0-14.303-6.394-14.303-14.303
		C156.071,192.481,348.553,0,585.143,0C695.743,0,800.837,42.135,881.06,118.638c5.721,5.449,5.936,14.502,0.486,20.224
		s-14.518,5.921-20.224,0.472C786.449,67.937,688.363,28.604,585.143,28.604c-220.814,0-400.466,179.652-400.466,400.467
		C184.676,436.98,178.269,443.374,170.374,443.374"/>
	<path id="XMLID_137_" fill="#D8635F" d="M885.493,143.024H756.771c-7.895,0-14.303-6.393-14.303-14.302s6.408-14.303,14.303-14.303
		h100.117V14.302C856.889,6.393,863.296,0,871.19,0c7.896,0,14.303,6.393,14.303,14.302V143.024z"/>
	<path id="XMLID_105_" fill="#D8635F" d="M576.848,858c-7.866-0.157-14.159-6.579-14.017-14.589
		c0.144-7.866,6.723-14.173,14.589-14.016c7.866,0.143,14.159,6.722,14.016,14.588C591.293,851.85,585,858,577.134,858H576.848z
		 M605.738,843.54c-0.715-7.852,5.149-14.717,13.016-15.446c7.866-0.572,14.874,5.306,15.446,13.158
		c0.715,7.881-5.148,14.746-13.015,15.317v0.129h-1.145C612.604,856.698,606.311,850.992,605.738,843.54 M532.653,854.996v-0.143
		c-7.866-0.858-13.444-8.01-12.443-15.876c1.001-7.88,8.01-13.444,15.876-12.442c7.866,0.986,13.444,8.009,12.443,15.861
		c-0.858,7.309-7.009,12.6-14.16,12.6H532.653L532.653,854.996z M648.359,839.264c-1.43-7.723,3.719-15.317,11.442-16.733
		c7.723-1.431,15.304,3.575,16.733,11.441c1.431,7.724-3.719,15.161-11.441,16.72c-0.858,0.157-1.717,0.157-2.575,0.157
		C655.797,850.849,649.646,846.129,648.359,839.264 M488.888,847.273c-7.58-1.717-12.442-9.439-10.727-17.163
		c1.859-7.724,9.439-12.443,17.163-10.727c7.723,1.716,12.586,9.439,10.727,17.163c-1.43,6.578-7.438,11.013-13.873,11.013
		C491.033,847.56,490.032,847.56,488.888,847.273 M690.408,830.525c-2.288-7.566,2.003-15.59,9.583-17.721
		c7.58-2.289,15.59,2.002,17.878,9.439c2.288,7.58-2.002,15.59-9.583,17.878c-1.43,0.429-2.86,0.572-4.147,0.572
		C697.989,840.694,692.268,836.689,690.408,830.525 M446.267,835.116c-7.437-2.574-11.441-10.727-8.867-18.164
		c2.574-7.58,10.727-11.456,18.164-8.867c7.438,2.431,11.441,10.583,8.867,18.164c-2.002,5.863-7.58,9.568-13.444,9.568
		C449.413,835.817,447.84,835.545,446.267,835.116 M731.313,817.524c-3.004-7.309,0.429-15.732,7.724-18.736
		c7.294-3.004,15.589,0.429,18.735,7.724c3.004,7.279-0.429,15.575-7.723,18.736c-1.859,0.715-3.719,1.001-5.578,1.001
		C738.894,826.249,733.602,822.959,731.313,817.524 M405.076,818.511c-7.151-3.274-10.155-11.871-6.865-19.021
		c3.289-7.151,11.728-10.284,19.022-6.852c7.151,3.275,10.154,11.729,6.864,18.88c-2.431,5.277-7.58,8.28-13.015,8.28
		C409.081,819.799,407.078,819.384,405.076,818.511 M770.645,800.219c-3.861-6.865-1.287-15.604,5.722-19.309
		c6.865-3.861,15.589-1.287,19.308,5.721c3.862,6.852,1.287,15.59-5.721,19.309c-2.146,1.272-4.434,1.845-6.723,1.845
		C778.082,807.784,773.22,805.081,770.645,800.219 M365.888,797.787c-6.722-4.005-9.011-12.872-4.863-19.595
		c4.005-6.865,12.729-9.01,19.595-5.006c6.722,4.148,9.01,12.872,4.863,19.595c-2.718,4.576-7.438,7.008-12.3,7.008
		C370.75,799.789,368.176,799.217,365.888,797.787 M807.975,779.051c-4.577-6.436-2.861-15.446,3.575-19.88
		c6.579-4.435,15.446-2.86,19.88,3.718c4.577,6.437,2.861,15.447-3.575,19.866c-2.574,1.73-5.292,2.432-8.152,2.432
		C815.125,785.187,810.691,783.056,807.975,779.051 M329.13,773.187L329.13,773.187c-6.436-4.733-7.723-13.729-3.003-20.023
		c4.72-6.436,13.73-7.723,20.023-3.003c6.293,4.72,7.58,13.73,3.003,20.023c-2.861,3.861-7.151,5.721-11.585,5.721
		C334.565,775.904,331.562,775.032,329.13,773.187 M842.872,754.15c-5.149-5.992-4.434-15.003,1.573-20.166
		c6.007-5.135,15.018-4.435,20.166,1.587c5.149,6.007,4.434,15.004-1.573,20.167c-2.717,2.288-6.007,3.433-9.296,3.433
		C849.737,759.171,845.732,757.454,842.872,754.15 M294.948,744.868L294.948,744.868c-5.864-5.435-6.293-14.46-0.858-20.31
		c5.292-5.721,14.446-6.164,20.167-0.858v0.129c5.864,5.292,6.15,14.303,0.858,20.181c-2.861,2.989-6.722,4.577-10.584,4.577
		C301.098,748.587,297.665,747.3,294.948,744.868 M875.053,725.703c-5.722-5.449-6.008-14.46-0.43-20.166
		c5.436-5.722,14.445-5.864,20.167-0.43c5.721,5.436,5.863,14.445,0.429,20.166c-2.718,3.004-6.579,4.435-10.298,4.435
		C881.346,729.708,877.77,728.42,875.053,725.703 M263.912,713.103c-5.292-5.85-4.72-14.874,1.144-20.152
		c6.007-5.148,15.018-4.72,20.167,1.287c5.292,5.864,4.72,14.875-1.145,20.167c-2.717,2.432-6.15,3.575-9.439,3.575
		C270.634,717.979,266.629,716.406,263.912,713.103 M904.086,694.237c-6.149-4.862-7.294-13.888-2.432-20.022
		c4.863-6.294,13.73-7.438,20.023-2.575c6.293,4.863,7.438,13.874,2.575,20.009c-2.86,3.733-7.151,5.593-11.3,5.593
		C909.807,697.241,906.804,696.24,904.086,694.237 M236.165,678.491c-4.577-6.422-3.146-15.29,3.29-20.01
		c6.436-4.576,15.446-3.003,20.023,3.29c4.577,6.436,3.146,15.446-3.29,20.023c-2.574,1.859-5.435,2.703-8.295,2.703
		C243.316,684.498,239.025,682.367,236.165,678.491 M929.83,659.912c-6.722-4.147-8.725-13.029-4.576-19.737
		c4.147-6.579,13.015-8.739,19.737-4.591c6.722,4.147,8.725,13.029,4.576,19.737c-2.717,4.447-7.437,6.736-12.156,6.736
		C934.836,662.058,932.262,661.342,929.83,659.912 M212.28,641.176c-4.004-6.865-1.573-15.59,5.292-19.451
		c6.865-4.019,15.589-1.588,19.451,5.292h0.143c3.862,6.851,1.43,15.59-5.435,19.451c-2.145,1.287-4.72,1.859-7.008,1.859
		C219.717,648.327,214.854,645.738,212.28,641.176 M951.856,623.141c-7.009-3.418-10.012-12.014-6.579-19.165
		s12.156-9.998,19.165-6.565c7.151,3.433,10.012,12,6.579,19.151c-2.432,5.021-7.58,8.023-12.872,8.023
		C956.004,624.585,953.858,624.156,951.856,623.141 M192.256,601.559c-3.146-7.295,0.143-15.732,7.294-18.88
		c7.294-3.146,15.732,0.144,18.879,7.295c3.146,7.294-0.143,15.732-7.294,18.864c-1.859,0.873-3.862,1.302-5.721,1.302
		C199.837,610.14,194.688,606.851,192.256,601.559 M970.021,584.252c-7.438-2.717-11.156-10.869-8.438-18.321
		c2.574-7.437,10.869-11.284,18.307-8.566c7.438,2.717,11.156,10.855,8.438,18.307c-2.002,5.864-7.58,9.439-13.444,9.439
		C973.31,585.11,971.594,584.824,970.021,584.252 M176.524,560.081c-2.431-7.58,1.716-15.604,9.296-18.035
		c7.438-2.432,15.59,1.73,17.878,9.311c2.432,7.438-1.716,15.59-9.153,18.021c-1.43,0.429-3.003,0.572-4.434,0.572
		C184.104,569.95,178.526,566.088,176.524,560.081 M984.036,543.776c-7.58-2.002-12.3-9.726-10.44-17.448
		c2.002-7.581,9.726-12.314,17.449-10.441c7.58,2.017,12.3,9.74,10.298,17.464c-1.573,6.436-7.438,10.869-13.874,10.869
		C986.325,544.206,985.181,544.062,984.036,543.776 M165.225,517.174c-1.716-7.723,3.29-15.303,11.013-16.891
		c7.723-1.717,15.304,3.304,16.877,11.027c1.716,7.723-3.29,15.289-11.013,16.877c-1.001,0.285-2.002,0.285-3.004,0.285
		C172.519,528.473,166.512,523.896,165.225,517.174 M993.762,501.871c-7.866-1.145-13.301-8.296-12.156-16.162
		c1.144-7.724,8.438-13.301,16.161-12.172c7.866,1.145,13.302,8.453,12.157,16.177c-1.001,7.151-7.151,12.3-14.159,12.3
		C995.192,502.014,994.478,502.014,993.762,501.871 M158.36,473.266c-0.858-7.723,4.863-14.874,12.729-15.59
		c7.866-0.872,14.875,4.863,15.733,12.729c0.858,7.853-4.863,14.875-12.729,15.732h-1.574
		C165.368,486.138,159.075,480.688,158.36,473.266 M999.054,459.393c-7.866-0.286-14.017-7.008-13.729-14.875
		c0.285-7.866,7.008-14.016,14.874-13.729s14.017,6.865,13.73,14.874c-0.286,7.566-6.579,13.73-14.303,13.73H999.054z
		 M156.071,429.071c0-7.866,6.437-14.302,14.303-14.302s14.302,6.436,14.302,14.302s-6.436,14.303-14.302,14.303
		S156.071,436.938,156.071,429.071"/>
</g>
</svg>
