<?xml version="1.0" encoding="utf-8"?>
<!-- Generator: Adobe Illustrator 16.0.0, SVG Export Plug-In . SVG Version: 6.00 Build 0)  -->
<!DOCTYPE svg PUBLIC "-//W3C//DTD SVG 1.1//EN" "http://www.w3.org/Graphics/SVG/1.1/DTD/svg11.dtd">
<svg version="1.1" id="Layer_1" xmlns="http://www.w3.org/2000/svg" xmlns:xlink="http://www.w3.org/1999/xlink" x="0px" y="0px"
	 width="682px" height="366px" viewBox="0 0 682 366" enable-background="new 0 0 682 366" xml:space="preserve">
<path fill="#FFFFFF" stroke="#B9B8C1" stroke-miterlimit="10" d="M232.542,312.042c0,6.073-4.924,10.998-10.998,10.998H66.387
	c-6.074,0-10.998-4.925-10.998-10.998V52.932c0-6.074,4.924-10.998,10.998-10.998h155.156c6.074,0,10.998,4.924,10.998,10.998
	V312.042z"/>
<path fill="#FFFFFF" stroke="#B9B8C1" stroke-miterlimit="10" d="M622.05,312.393c0,6.073-4.925,10.998-10.998,10.998H455.895
	c-6.073,0-10.998-4.925-10.998-10.998V53.283c0-6.074,4.925-10.998,10.998-10.998h155.157c6.073,0,10.998,4.924,10.998,10.998
	V312.393z"/>
<path fill="#FFFFFF" stroke="#4F8BC9" stroke-miterlimit="10" d="M428.677,312.042c0,6.073-4.925,10.998-10.998,10.998H262.522
	c-6.074,0-10.999-4.925-10.999-10.998V52.932c0-6.074,4.924-10.998,10.999-10.998h155.156c6.073,0,10.998,4.924,10.998,10.998
	V312.042z"/>
<g>
	<path fill="#CDD1D3" d="M152.494,153.739c2.354-2.52,3.945-6.018,3.509-9.505c-3.39,0.121-7.5,1.99-9.933,4.509
		c-2.182,2.23-4.091,5.795-3.582,9.214C146.271,158.213,150.137,156.254,152.494,153.739z M159.714,177.827
		c-0.072-7.82,6.191-11.576,6.468-11.757c-3.521-5.31-9.005-6.037-10.958-6.119c-4.67-0.49-9.105,2.828-11.476,2.828
		c-2.361,0-6.013-2.763-9.887-2.689c-5.091,0.084-9.783,3.049-12.397,7.748c-5.289,9.453-1.355,23.456,3.798,31.124
		c2.52,3.754,5.52,7.965,9.458,7.812c3.802-0.153,5.236-2.53,9.824-2.53c4.589,0,5.875,2.53,9.89,2.453
		c4.085-0.076,6.671-3.826,9.169-7.591c2.89-4.354,4.082-8.568,4.15-8.781C167.667,190.273,159.798,187.179,159.714,177.827z"/>
</g>
<g>
	<path fill="#C9C9C7" d="M548.872,172.174h-30.799c-0.686,0-1.241,0.555-1.241,1.24v25.828c0,0.686,0.556,1.24,1.241,1.24h5.49
		v8.704c0,2.019,1.638,3.656,3.657,3.656l0,0c2.02,0,3.656-1.637,3.656-3.656v-8.704h5.115v8.704c0,2.019,1.637,3.656,3.655,3.656
		l0,0c2.021,0,3.657-1.637,3.657-3.656v-8.704h5.567c0.685,0,1.24-0.555,1.24-1.24v-25.828
		C550.112,172.729,549.557,172.174,548.872,172.174z"/>
	<path fill="#C9C9C7" d="M511.618,172.168L511.618,172.168c-2.019,0-3.656,1.637-3.656,3.657v14.853
		c0,2.019,1.637,3.656,3.656,3.656l0,0c2.02,0,3.657-1.638,3.657-3.656v-14.853C515.275,173.806,513.638,172.168,511.618,172.168z"
		/>
	<path fill="#C9C9C7" d="M555.326,172.168L555.326,172.168c-2.02,0-3.656,1.637-3.656,3.657v14.853c0,2.019,1.637,3.656,3.656,3.656
		l0,0c2.02,0,3.657-1.638,3.657-3.656v-14.853C558.983,173.806,557.347,172.168,555.326,172.168z"/>
	<path fill="#C9C9C7" d="M518.322,170.363h30.227c0.79,0,1.378-0.726,1.216-1.498c-1-4.765-4.034-8.782-8.151-11.102l2.584-4.662
		c0.176-0.316,0.061-0.713-0.255-0.889c-0.316-0.175-0.713-0.061-0.888,0.255l-2.604,4.697c-2.133-0.989-4.51-1.542-7.015-1.542
		c-2.506,0-4.883,0.553-7.016,1.542l-2.603-4.697c-0.177-0.316-0.574-0.43-0.889-0.255c-0.316,0.175-0.43,0.572-0.255,0.889
		l2.584,4.662c-4.117,2.32-7.15,6.336-8.15,11.102C516.945,169.637,517.533,170.363,518.322,170.363z M542.456,163.415
		c0,0.776-0.63,1.405-1.406,1.405c-0.775,0-1.405-0.629-1.405-1.405c0-0.777,0.629-1.406,1.405-1.406
		S542.456,162.638,542.456,163.415z M525.822,162.009c0.775,0,1.405,0.629,1.405,1.406c0,0.776-0.629,1.405-1.405,1.405
		c-0.777,0-1.406-0.629-1.406-1.405C524.416,162.638,525.045,162.009,525.822,162.009z"/>
</g>
<rect x="313.063" y="156.689" fill="none" width="59.574" height="51.596"/>
<text transform="matrix(1 0 0 1 313.0625 195.7324)" fill="#4F8BC9" font-family="'MyriadPro-Regular'" font-size="54.9911">.js</text>
</svg>
