<?xml version="1.0" encoding="utf-8"?>
<!-- Generator: Adobe Illustrator 16.0.0, SVG Export Plug-In . SVG Version: 6.00 Build 0)  -->
<!DOCTYPE svg PUBLIC "-//W3C//DTD SVG 1.1//EN" "http://www.w3.org/Graphics/SVG/1.1/DTD/svg11.dtd">
<svg version="1.1" id="Layer_1" xmlns="http://www.w3.org/2000/svg" xmlns:xlink="http://www.w3.org/1999/xlink" x="0px" y="0px"
	 width="682px" height="366px" viewBox="0 0 682 366" enable-background="new 0 0 682 366" xml:space="preserve">
<g>
	<g>
		<path fill="#BBB9BA" d="M132.14,99.67c0.691,0.42,2.124,0.914,3.234,0.914c1.135,0,1.604-0.396,1.604-1.012
			c0-0.619-0.371-0.914-1.776-1.383c-2.494-0.84-3.458-2.197-3.433-3.629c0-2.246,1.927-3.949,4.913-3.949
			c1.408,0,2.668,0.32,3.408,0.69l-0.666,2.592c-0.543-0.297-1.58-0.692-2.617-0.692c-0.914,0-1.433,0.371-1.433,0.988
			c0,0.568,0.469,0.865,1.951,1.383c2.295,0.789,3.258,1.951,3.283,3.728c0,2.246-1.777,3.9-5.234,3.9
			c-1.58,0-2.988-0.344-3.9-0.838L132.14,99.67z"/>
		<path fill="#BBB9BA" d="M142.877,94.731c0-1.504-0.049-2.789-0.099-3.851h3.16l0.172,1.629h0.074
			c0.519-0.764,1.58-1.899,3.654-1.899c1.555,0,2.789,0.789,3.308,2.047h0.049c0.444-0.617,0.987-1.111,1.556-1.455
			c0.667-0.396,1.408-0.592,2.297-0.592c2.32,0,4.074,1.629,4.074,5.232v7.111h-3.654v-6.566c0-1.754-0.569-2.767-1.778-2.767
			c-0.863,0-1.482,0.592-1.728,1.31c-0.098,0.271-0.147,0.666-0.147,0.963v7.06h-3.654v-6.765c0-1.531-0.543-2.568-1.729-2.568
			c-0.961,0-1.531,0.742-1.752,1.359c-0.123,0.295-0.147,0.642-0.147,0.938v7.035h-3.654V94.731z"/>
		<path fill="#BBB9BA" d="M164.079,99.67c0.691,0.42,2.124,0.914,3.234,0.914c1.135,0,1.604-0.396,1.604-1.012
			c0-0.619-0.371-0.914-1.777-1.383c-2.494-0.84-3.457-2.197-3.432-3.629c0-2.246,1.926-3.949,4.912-3.949
			c1.408,0,2.666,0.32,3.408,0.69l-0.666,2.592c-0.543-0.297-1.58-0.692-2.617-0.692c-0.914,0-1.433,0.371-1.433,0.988
			c0,0.568,0.469,0.865,1.951,1.383c2.295,0.789,3.259,1.951,3.283,3.728c0,2.246-1.777,3.9-5.234,3.9
			c-1.58,0-2.988-0.344-3.9-0.838L164.079,99.67z"/>
	</g>
	<g>
		<path fill="#BBB9BA" d="M169.676,135.636l-19.399-15.917h-22.783c-3.534,0-6.409-2.925-6.409-6.522V80.133
			c0-3.597,2.875-6.522,6.409-6.522h49.187c3.535,0,6.409,2.925,6.409,6.522v33.063c0,3.597-2.874,6.522-6.409,6.522h-7.005V135.636
			L169.676,135.636z M127.495,77.486c-1.396,0-2.533,1.188-2.533,2.647v33.063c0,1.459,1.137,2.647,2.533,2.647h24.168l14.139,11.6
			v-11.6h10.88c1.396,0,2.534-1.188,2.534-2.647V80.133c0-1.459-1.137-2.647-2.534-2.647H127.495z"/>
	</g>
</g>
<g>
	<path id="XMLID_1220_" fill="none" stroke="#ADB1B7" stroke-miterlimit="10" d="M155.779,256.823h-26.236
		c-4.759,0-8.639-3.88-8.639-8.639V216.16c0-4.758,3.88-8.639,8.639-8.639h52.474c4.758,0,8.638,3.881,8.638,8.639v32.024
		c0,4.759-3.88,8.639-8.638,8.639h-29.731"/>
	<path fill="#BAB8BA" d="M129.542,258.752h52.474c5.83,0,10.567-4.736,10.567-10.588V216.16c0-5.83-4.737-10.589-10.567-10.589
		h-52.474c-5.831,0-10.568,4.737-10.568,10.589v32.024C118.953,254.016,123.712,258.752,129.542,258.752z M122.854,216.16
		c0-3.687,3.001-6.688,6.688-6.688h52.474c3.687,0,6.688,3.001,6.688,6.688v32.024c0,3.687-3.001,6.688-6.688,6.688h-29.731h-22.743
		c-3.687,0-6.688-3.002-6.688-6.688V216.16L122.854,216.16z"/>
	<path fill="#BAB8BA" d="M129.606,248.249c0.386,0.429,0.922,0.665,1.458,0.665c0.45,0,0.922-0.15,1.287-0.494l16.784-14.79
		l5.444,4.224c0.343,0.277,0.771,0.406,1.2,0.406c0.429,0,0.836-0.129,1.201-0.406l5.616-4.352l16.612,14.896
		c0.364,0.344,0.836,0.494,1.286,0.494c0.536,0,1.072-0.215,1.458-0.644c0.708-0.793,0.643-2.036-0.15-2.743l-16.077-14.426
		l15.991-12.412c0.857-0.664,1.007-1.886,0.343-2.723c-0.665-0.857-1.887-1.007-2.723-0.342l-23.558,18.284l-5.53-4.31l0,0
		l-17.984-13.953c-0.857-0.665-2.058-0.516-2.722,0.342s-0.515,2.059,0.343,2.723l16.141,12.54l-16.227,14.298
		C128.963,246.234,128.899,247.456,129.606,248.249z"/>
	<path fill="#BAB8BA" d="M112.866,234.123c1.072,0,1.951-0.879,1.951-1.951c0-1.071-0.879-1.949-1.951-1.949H97.432
		c-1.072,0-1.951,0.878-1.951,1.949c0,1.072,0.879,1.951,1.951,1.951H112.866z"/>
	<path fill="#BAB8BA" d="M89.608,223.855h23.257c1.072,0,1.951-0.879,1.951-1.95c0-1.072-0.879-1.95-1.951-1.95H89.608
		c-1.072,0-1.951,0.878-1.951,1.95C87.679,222.977,88.537,223.855,89.608,223.855z"/>
	<path fill="#BAB8BA" d="M114.816,242.439c0-1.071-0.879-1.949-1.951-1.949h-10.16c-1.072,0-1.951,0.878-1.951,1.949
		c0,1.072,0.878,1.951,1.951,1.951h10.16C113.938,244.391,114.816,243.512,114.816,242.439z"/>
</g>
<rect id="XMLID_872_" x="507.594" y="77.66" fill="#BBB9BA" width="58.237" height="73.328"/>
<rect id="XMLID_874_" x="514.873" y="109.741" fill="#FFFFFF" width="7.28" height="6.875"/>
<rect id="XMLID_875_" x="514.873" y="98.283" fill="#FFFFFF" width="43.678" height="6.875"/>
<rect id="XMLID_876_" x="539.14" y="109.741" fill="#FFFFFF" width="7.279" height="6.875"/>
<rect id="XMLID_877_" x="527.006" y="109.741" fill="#9AA3B2" width="7.279" height="6.875"/>
<rect id="XMLID_878_" x="551.271" y="109.741" fill="#FFFFFF" width="7.279" height="6.875"/>
<rect id="XMLID_880_" x="514.873" y="132.656" fill="#FFFFFF" width="7.28" height="6.874"/>
<rect id="XMLID_881_" x="514.873" y="121.198" fill="#FFFFFF" width="43.678" height="6.875"/>
<rect id="XMLID_882_" x="539.14" y="132.656" fill="#98A1AF" width="7.279" height="6.874"/>
<rect id="XMLID_883_" x="527.006" y="132.656" fill="#FFFFFF" width="7.279" height="6.874"/>
<rect id="XMLID_884_" x="551.271" y="132.656" fill="#FFFFFF" width="7.279" height="6.874"/>
<path id="XMLID_885_" fill="#9AA3B2" d="M536.711,70.786c4.021,0,7.281,3.078,7.281,6.874c0,3.797-3.26,6.875-7.281,6.875
	c-4.019,0-7.278-3.078-7.278-6.875C529.433,73.863,532.692,70.786,536.711,70.786z"/>
<path id="XMLID_886_" fill="#ACB3BC" d="M536.711,84.534c-4.018,0-7.278-3.078-7.278-6.875c0-3.796,3.261-6.874,7.278-6.874"/>
<rect id="XMLID_887_" x="519.727" y="77.66" fill="#C1CCDB" width="16.984" height="11.458"/>
<rect id="XMLID_888_" x="536.711" y="77.66" fill="#9AA3B2" width="16.987" height="11.458"/>
<path fill="#4290CE" d="M366.181,198.961c0-2.809-2.297-5.107-5.105-5.107h-43.497c-2.809,0-5.106,2.299-5.106,5.107v83.059
	c0,2.809,2.298,5.106,5.106,5.106h43.497c2.809,0,5.105-2.298,5.105-5.106V198.961z"/>
<rect x="312.472" y="203.124" fill="#E4EBEE" width="53.709" height="72.853"/>
<circle fill="#5D6771" cx="346.326" cy="281.381" r="2.553"/>
<g>
	<circle fill="#5D6771" cx="339.326" cy="197.146" r="1.292"/>
	<circle fill="#1E252B" cx="339.326" cy="197.146" r="0.744"/>
</g>
<path fill="#5D6771" d="M343.539,200.79h-8.425c-0.213,0-0.384-0.171-0.384-0.383s0.171-0.383,0.384-0.383h8.425
	c0.212,0,0.383,0.171,0.383,0.383S343.751,200.79,343.539,200.79z"/>
<circle fill="#1E252B" cx="331.794" cy="200.407" r="0.638"/>
<path fill="#DEE2EC" d="M350.018,227.342c0,0.451-0.366,0.816-0.817,0.816h-21.235c-0.451,0-0.817-0.365-0.817-0.816v-3.268h-2.45
	v34.305c0,0.902,0.731,1.633,1.633,1.633h24.503c0.902,0,1.634-0.73,1.634-1.633v-34.305h-2.451L350.018,227.342L350.018,227.342z
	 M350.018,256.745c0,0.451-0.366,0.816-0.817,0.816h-21.235c-0.451,0-0.817-0.365-0.817-0.816v-6.534
	c0-0.451,0.366-0.816,0.817-0.816H349.2c0.451,0,0.817,0.365,0.817,0.816V256.745z M350.018,246.943
	c0,0.451-0.366,0.817-0.817,0.817h-21.235c-0.451,0-0.817-0.366-0.817-0.817v-6.533c0-0.451,0.366-0.817,0.817-0.817H349.2
	c0.451,0,0.817,0.366,0.817,0.817V246.943z M350.018,237.143c0,0.451-0.366,0.816-0.817,0.816h-21.235
	c-0.451,0-0.817-0.365-0.817-0.816v-6.534c0-0.451,0.366-0.817,0.817-0.817H349.2c0.451,0,0.817,0.366,0.817,0.817V237.143z"/>
<path fill="#B8B6C1" d="M350.834,212.64h-24.503c-0.902,0-1.633,0.731-1.633,1.634v9.801h2.45v-3.268
	c0-0.45,0.366-0.816,0.817-0.816H349.2c0.451,0,0.817,0.366,0.817,0.816v3.268h2.45v-9.801
	C352.468,213.371,351.736,212.64,350.834,212.64z M333.683,216.314c0,0.678-0.549,1.226-1.226,1.226h-2.45
	c-0.677,0-1.226-0.548-1.226-1.226l0,0c0-0.676,0.549-1.225,1.226-1.225h2.45C333.134,215.09,333.683,215.639,333.683,216.314
	L333.683,216.314z M339.808,217.54h-2.45c-0.677,0-1.226-0.548-1.226-1.226c0-0.676,0.549-1.225,1.226-1.225h2.45
	c0.677,0,1.226,0.549,1.226,1.225C341.033,216.992,340.484,217.54,339.808,217.54z M348.384,216.314
	c0,0.678-0.549,1.226-1.225,1.226h-2.451c-0.676,0-1.225-0.548-1.225-1.226l0,0c0-0.676,0.549-1.225,1.225-1.225h2.451
	C347.835,215.09,348.384,215.639,348.384,216.314L348.384,216.314z"/>
<path fill="#FFFFFF" d="M349.2,229.791h-21.235c-0.451,0-0.817,0.366-0.817,0.817v6.534c0,0.451,0.366,0.816,0.817,0.816H349.2
	c0.451,0,0.817-0.365,0.817-0.816v-6.534C350.018,230.157,349.651,229.791,349.2,229.791z M333.683,236.326h-4.084
	c-0.451,0-0.817-0.366-0.817-0.817s0.366-0.816,0.817-0.816h4.084c0.451,0,0.816,0.365,0.816,0.816S334.134,236.326,333.683,236.326
	z M338.583,236.326h-1.634c-0.451,0-0.817-0.366-0.817-0.816c0-0.451,0.366-0.817,0.817-0.817h1.634
	c0.451,0,0.816,0.366,0.816,0.817C339.399,235.96,339.034,236.326,338.583,236.326z M341.85,232.242
	c0,0.451-0.366,0.816-0.816,0.816h-11.435c-0.451,0-0.817-0.365-0.817-0.816l0,0c0-0.451,0.366-0.816,0.817-0.816h11.435
	C341.483,231.426,341.85,231.791,341.85,232.242L341.85,232.242z M345.934,236.326c-1.353,0-2.45-1.098-2.45-2.451
	s1.098-2.449,2.45-2.449s2.45,1.096,2.45,2.449S347.286,236.326,345.934,236.326z"/>
<path fill="#AFBCD0" d="M341.033,231.426h-11.435c-0.451,0-0.817,0.365-0.817,0.816l0,0c0,0.451,0.366,0.816,0.817,0.816h11.435
	c0.45,0,0.816-0.365,0.816-0.816l0,0C341.85,231.791,341.483,231.426,341.033,231.426z"/>
<g>
	<path fill="#D3DDF0" d="M333.683,234.692h-4.084c-0.451,0-0.817,0.366-0.817,0.817c0,0.45,0.366,0.816,0.817,0.816h4.084
		c0.451,0,0.816-0.366,0.816-0.816C334.499,235.058,334.134,234.692,333.683,234.692z"/>
	<path fill="#D3DDF0" d="M338.583,234.692h-1.634c-0.451,0-0.817,0.366-0.817,0.817c0,0.45,0.366,0.816,0.817,0.816h1.634
		c0.451,0,0.816-0.366,0.816-0.816C339.399,235.059,339.034,234.692,338.583,234.692z"/>
</g>
<circle fill="#B8B6C1" cx="345.934" cy="233.876" r="2.45"/>
<path fill="#FFFFFF" d="M327.965,228.158H349.2c0.451,0,0.817-0.365,0.817-0.816v-3.268v-3.268c0-0.45-0.366-0.816-0.817-0.816
	h-21.235c-0.451,0-0.817,0.366-0.817,0.816v3.268v3.268C327.147,227.793,327.514,228.158,327.965,228.158z M333.683,226.524h-4.084
	c-0.451,0-0.817-0.366-0.817-0.817c0-0.45,0.366-0.816,0.817-0.816h4.084c0.451,0,0.816,0.366,0.816,0.816
	C334.499,226.158,334.134,226.524,333.683,226.524z M338.583,226.525h-1.634c-0.451,0-0.817-0.367-0.817-0.818
	c0-0.45,0.366-0.816,0.817-0.816h1.634c0.451,0,0.816,0.366,0.816,0.816C339.399,226.158,339.034,226.525,338.583,226.525z
	 M345.934,221.624c1.353,0,2.45,1.097,2.45,2.45s-1.098,2.451-2.45,2.451s-2.45-1.098-2.45-2.451S344.581,221.624,345.934,221.624z
	 M328.781,222.441c0-0.451,0.366-0.817,0.817-0.817h11.435c0.45,0,0.816,0.366,0.816,0.817l0,0c0,0.45-0.366,0.816-0.816,0.816
	h-11.435C329.147,223.258,328.781,222.892,328.781,222.441L328.781,222.441z"/>
<path fill="#AFBCD0" d="M329.599,223.258h11.435c0.45,0,0.816-0.366,0.816-0.816l0,0c0-0.451-0.366-0.817-0.816-0.817h-11.435
	c-0.451,0-0.817,0.366-0.817,0.817l0,0C328.781,222.892,329.147,223.258,329.599,223.258z"/>
<g>
	<path fill="#D3DDF0" d="M333.683,224.891h-4.084c-0.451,0-0.817,0.366-0.817,0.816c0,0.451,0.366,0.818,0.817,0.818h4.084
		c0.451,0,0.816-0.367,0.816-0.818C334.499,225.257,334.134,224.891,333.683,224.891z"/>
	<path fill="#D3DDF0" d="M338.583,224.891h-1.634c-0.451,0-0.817,0.366-0.817,0.817s0.366,0.817,0.817,0.817h1.634
		c0.451,0,0.816-0.366,0.816-0.817S339.034,224.891,338.583,224.891z"/>
</g>
<circle fill="#B8B6C1" cx="345.934" cy="224.075" r="2.451"/>
<path fill="#FFFFFF" d="M349.2,239.593h-21.235c-0.451,0-0.817,0.366-0.817,0.817v6.533c0,0.451,0.366,0.817,0.817,0.817H349.2
	c0.451,0,0.817-0.366,0.817-0.817v-6.533C350.018,239.959,349.651,239.593,349.2,239.593z M333.683,246.127h-4.084
	c-0.451,0-0.817-0.365-0.817-0.816s0.366-0.817,0.817-0.817h4.084c0.451,0,0.816,0.366,0.816,0.817S334.134,246.127,333.683,246.127
	z M338.583,246.127h-1.634c-0.451,0-0.817-0.365-0.817-0.816s0.366-0.816,0.817-0.816h1.634c0.451,0,0.816,0.365,0.816,0.816
	S339.034,246.127,338.583,246.127z M341.85,242.043c0,0.451-0.366,0.816-0.816,0.816h-11.435c-0.451,0-0.817-0.365-0.817-0.816l0,0
	c0-0.451,0.366-0.816,0.817-0.816h11.435C341.483,241.227,341.85,241.592,341.85,242.043L341.85,242.043z M345.934,246.127
	c-1.353,0-2.45-1.098-2.45-2.45s1.098-2.45,2.45-2.45s2.45,1.098,2.45,2.45S347.286,246.127,345.934,246.127z"/>
<path fill="#AFBCD0" d="M341.033,241.227h-11.435c-0.451,0-0.817,0.365-0.817,0.816l0,0c0,0.451,0.366,0.817,0.817,0.817h11.435
	c0.45,0,0.816-0.366,0.816-0.817l0,0C341.85,241.592,341.483,241.227,341.033,241.227z"/>
<g>
	<path fill="#D3DDF0" d="M333.683,244.494h-4.084c-0.451,0-0.817,0.365-0.817,0.816s0.366,0.816,0.817,0.816h4.084
		c0.451,0,0.816-0.365,0.816-0.816S334.134,244.494,333.683,244.494z"/>
	<path fill="#D3DDF0" d="M338.583,244.494h-1.634c-0.451,0-0.817,0.365-0.817,0.816s0.366,0.816,0.817,0.816h1.634
		c0.451,0,0.816-0.365,0.816-0.816S339.034,244.494,338.583,244.494z"/>
</g>
<circle fill="#B8B6C1" cx="345.934" cy="243.677" r="2.45"/>
<path fill="#FFFFFF" d="M349.2,249.395h-21.235c-0.451,0-0.817,0.365-0.817,0.816v6.534c0,0.451,0.366,0.816,0.817,0.816H349.2
	c0.451,0,0.817-0.365,0.817-0.816v-6.534C350.018,249.76,349.651,249.395,349.2,249.395z M333.683,255.928h-4.084
	c-0.451,0-0.817-0.365-0.817-0.816s0.366-0.816,0.817-0.816h4.084c0.451,0,0.816,0.365,0.816,0.816S334.134,255.928,333.683,255.928
	z M339.399,255.111c0,0.451-0.365,0.816-0.816,0.816h-1.634c-0.451,0-0.817-0.365-0.817-0.816l0,0c0-0.451,0.366-0.816,0.817-0.816
	h1.634C339.034,254.295,339.399,254.66,339.399,255.111L339.399,255.111z M341.033,252.661h-11.435
	c-0.451,0-0.817-0.366-0.817-0.817s0.366-0.816,0.817-0.816h11.435c0.45,0,0.816,0.365,0.816,0.816S341.483,252.661,341.033,252.661
	z M345.934,255.928c-1.353,0-2.45-1.097-2.45-2.449c0-1.354,1.098-2.451,2.45-2.451s2.45,1.098,2.45,2.451
	C348.384,254.831,347.286,255.928,345.934,255.928z"/>
<path fill="#AFBCD0" d="M341.033,251.027h-11.435c-0.451,0-0.817,0.365-0.817,0.816s0.366,0.817,0.817,0.817h11.435
	c0.45,0,0.816-0.366,0.816-0.817S341.483,251.027,341.033,251.027z"/>
<g>
	<path fill="#D3DDF0" d="M333.683,254.295h-4.084c-0.451,0-0.817,0.365-0.817,0.816s0.366,0.816,0.817,0.816h4.084
		c0.451,0,0.816-0.365,0.816-0.816S334.134,254.295,333.683,254.295z"/>
	<path fill="#D3DDF0" d="M338.583,254.295h-1.634c-0.451,0-0.817,0.365-0.817,0.816l0,0c0,0.451,0.366,0.816,0.817,0.816h1.634
		c0.451,0,0.816-0.365,0.816-0.816l0,0C339.399,254.66,339.034,254.295,338.583,254.295z"/>
</g>
<circle fill="#B8B6C1" cx="345.934" cy="253.478" r="2.45"/>
<g>
	<path fill="#C6BEBF" d="M339.808,215.09h-2.45c-0.677,0-1.226,0.549-1.226,1.225c0,0.678,0.549,1.226,1.226,1.226h2.45
		c0.677,0,1.226-0.548,1.226-1.226C341.033,215.639,340.484,215.09,339.808,215.09z"/>
	<path fill="#C6BEBF" d="M332.457,215.09h-2.45c-0.677,0-1.226,0.549-1.226,1.225l0,0c0,0.678,0.549,1.226,1.226,1.226h2.45
		c0.677,0,1.226-0.548,1.226-1.226l0,0C333.683,215.639,333.134,215.09,332.457,215.09z"/>
	<path fill="#C6BEBF" d="M347.159,215.09h-2.451c-0.676,0-1.225,0.549-1.225,1.225l0,0c0,0.678,0.549,1.226,1.225,1.226h2.451
		c0.676,0,1.225-0.548,1.225-1.226l0,0C348.384,215.639,347.835,215.09,347.159,215.09z"/>
</g>
<polyline fill="#4893CF" points="349.005,142.987 329.473,142.987 329.473,130.409 349.005,130.409 349.005,142.987 "/>
<path fill="#3386C7" d="M380.019,78.45v51.96c0,2.206-1.788,3.995-3.995,3.995h-73.571c-2.206,0-3.995-1.789-3.995-3.995V78.45
	c0-2.008,1.627-3.636,3.636-3.636h74.29C378.392,74.814,380.019,76.442,380.019,78.45"/>
<polyline fill="#FFFFFF" points="304.007,128.856 304.007,80.363 374.472,80.363 374.472,128.856 304.007,128.856 "/>
<polyline fill="#E6E6E5" points="371.596,111.91 334.65,111.91 334.65,114.925 371.596,114.925 371.596,111.91 "/>
<path fill="#BBB1AE" d="M354.74,130.875h-42.19c0-0.952,0.387-1.813,1.009-2.438c0.624-0.622,1.486-1.009,2.438-1.009h35.296
	C353.196,127.428,354.74,128.972,354.74,130.875"/>
<path fill="#2AAAE2" d="M330.281,92.75c0-5.942-4.816-10.758-10.758-10.758c-5.941,0-10.758,4.816-10.758,10.758
	c0,5.941,4.816,10.758,10.758,10.758C325.465,103.507,330.281,98.691,330.281,92.75"/>
<path fill="#FFFFFF" d="M316.355,96.256h1.448h4.343h1.447l1.514-6.168h-10.266L316.355,96.256z M319.588,91.882h-1.596
	l-0.137-1.023h1.733V91.882z M320.359,90.859h1.733l-0.137,1.023h-1.596V90.859z M317.215,91.882h-1.128l-0.249-1.023h1.239
	L317.215,91.882z M316.274,92.654h1.044l0.145,1.079h-0.928L316.274,92.654z M318.097,92.654h1.492v1.079h-1.347L318.097,92.654z
	 M320.359,92.654h1.492l-0.145,1.079h-1.347V92.654L320.359,92.654z M322.629,92.654h1.045l-0.262,1.079h-0.928L322.629,92.654z
	 M322.732,91.882l0.138-1.023h1.24l-0.249,1.023H322.732z M316.962,95.485l-0.238-0.98h0.844l0.132,0.98H316.962z M318.345,94.504
	h1.244v0.98h-1.111L318.345,94.504z M320.359,95.485v-0.98h1.244l-0.132,0.98H320.359z M322.249,95.485l0.132-0.98h0.844
	l-0.238,0.98H322.249z"/>
<polygon fill="#FFFFFF" points="314.841,90.088 315.635,90.088 315.09,87.869 312.719,87.869 312.719,88.64 314.485,88.64 "/>
<circle fill="#FFFFFF" cx="318.353" cy="97.606" r="0.838"/>
<circle fill="#FFFFFF" cx="322.542" cy="97.606" r="0.838"/>
<path fill="#ADB3B7" d="M351.293,127.428h-9.223h-8.664l1.051,3.447h20.283C354.74,128.972,353.196,127.428,351.293,127.428"/>
<path fill="#FCD18C" d="M338.636,111.127c-0.831-0.857-2.201-0.867-3.042-0.025l-2.99,2.992c-1.719,1.719-4.657,0.501-4.657-1.927
	V93.967c0-1.174-0.925-2.166-2.1-2.179c-0.595-0.007-1.137,0.231-1.523,0.621c-0.386,0.384-0.62,0.915-0.62,1.502v9.307
	c0-0.046-0.003-0.089-0.005-0.132c-0.01-0.204-0.054-0.399-0.12-0.583c-0.01-0.03-0.023-0.064-0.036-0.094
	c-0.025-0.064-0.053-0.122-0.084-0.184c-0.025-0.045-0.053-0.091-0.081-0.137c-0.023-0.036-0.045-0.072-0.071-0.104
	c-0.021-0.034-0.045-0.064-0.071-0.095c-0.038-0.051-0.081-0.102-0.127-0.147l-0.002-0.003c-0.143-0.15-0.311-0.28-0.491-0.384
	c-0.31-0.175-0.668-0.274-1.05-0.274c-0.592,0-1.124,0.236-1.51,0.625c-0.386,0.386-0.625,0.92-0.625,1.51v0.727
	c0-0.056-0.001-0.112-0.007-0.168c-0.005-0.071-0.012-0.145-0.028-0.216c-0.009-0.055-0.02-0.106-0.035-0.16
	c-0.008-0.038-0.02-0.074-0.033-0.112c-0.015-0.051-0.033-0.102-0.056-0.15v-0.005c-0.022-0.051-0.045-0.102-0.068-0.15
	l-0.022-0.045c-0.028-0.048-0.056-0.097-0.087-0.145c-0.038-0.061-0.082-0.119-0.125-0.175c-0.041-0.051-0.084-0.102-0.129-0.15
	h-0.003c-0.152-0.162-0.331-0.297-0.526-0.404c-0.3-0.163-0.648-0.257-1.017-0.257c-0.59,0-1.124,0.239-1.51,0.625
	c-0.387,0.39-0.628,0.923-0.628,1.513v1.79c0-0.053-0.002-0.107-0.005-0.161c-0.008-0.106-0.023-0.208-0.045-0.31
	c-0.01-0.048-0.023-0.099-0.039-0.147c-0.035-0.122-0.083-0.239-0.142-0.351c-0.012-0.025-0.025-0.051-0.041-0.077
	c-0.013-0.022-0.025-0.046-0.041-0.068c-0.013-0.025-0.028-0.048-0.046-0.071l-0.005-0.006c-0.031-0.047-0.063-0.091-0.099-0.137
	c-0.041-0.051-0.084-0.102-0.129-0.15l-0.031-0.034c-0.117-0.116-0.244-0.218-0.384-0.304c-0.325-0.204-0.714-0.323-1.126-0.323
	c-1.182,0-2.138,0.958-2.138,2.138v10.504c0,0.653,0.112,1.296,0.326,1.901c0.216,0.607,0.534,1.177,0.943,1.683l0.018,0.02
	c1.248,1.525,1.967,3.414,1.967,5.387v3.625h13.84v-3.144c0-1.423,0.801-2.712,2.062-3.378l0.018-0.01
	c1.268-0.676,2.422-1.563,3.41-2.631l4.661-5.046l0.542-0.584c0.259-0.28,0.43-0.615,0.508-0.963
	C339.34,112.413,339.157,111.666,338.636,111.127"/>
<path fill="#DDB67B" d="M315.157,105.735v4.746c0,0.165-0.134,0.295-0.297,0.295c-0.164,0-0.296-0.13-0.296-0.295v-6.223
	C314.931,104.641,315.157,105.162,315.157,105.735z"/>
<path fill="#DDB67B" d="M319.429,103.946v5.386c0,0.164-0.133,0.297-0.297,0.297c-0.164,0-0.296-0.133-0.296-0.297v-6.862
	C319.203,102.854,319.429,103.374,319.429,103.946z"/>
<path fill="#DDB67B" d="M323.702,103.219v6.867c0,0.165-0.133,0.298-0.297,0.298c-0.164,0-0.297-0.133-0.297-0.298v-8.342
	C323.477,102.126,323.702,102.646,323.702,103.219z"/>
<path fill="#FFFFFF" d="M327.188,93.908c0-0.752-0.61-1.362-1.363-1.362c-0.753,0-1.363,0.61-1.363,1.362
	c0,0.753,0.61,0.792,1.363,0.792C326.577,94.701,327.188,94.661,327.188,93.908z"/>
<path fill="#FFFFFF" d="M339.176,113.097c-0.076,0.349-0.247,0.684-0.506,0.963l-0.543,0.586l-1.524-1.527
	C337.312,112.41,338.456,112.401,339.176,113.097"/>
<rect x="314.138" y="126.618" fill="#DDB67B" width="13.839" height="2.238"/>
<polyline fill="#E6E6E5" points="371.596,105.503 334.65,105.503 334.65,108.518 371.596,108.518 371.596,105.503 "/>
<polyline fill="#E6E6E5" points="371.596,99.097 334.65,99.097 334.65,102.112 371.596,102.112 371.596,99.097 "/>
<polyline fill="#E6E6E5" points="371.596,92.69 334.65,92.69 334.65,95.705 371.596,95.705 371.596,92.69 "/>
<polyline fill="#E6E6E5" points="371.596,86.284 334.65,86.284 334.65,89.298 371.596,89.298 371.596,86.284 "/>
<path fill="#489FD8" d="M376.384,74.814h-47.008h-4.752l1.691,5.549h48.157v48.493h-33.377l1.691,5.549h33.238
	c2.207,0,3.995-1.789,3.995-3.995V78.45C380.019,76.442,378.392,74.814,376.384,74.814"/>
<path fill="#FFFFFF" d="M334.65,102.112v-3.015h36.945v3.015H334.65 M334.65,95.705V92.69h36.945v3.015H334.65 M334.65,89.298
	v-3.015h36.945v3.015H334.65 M374.472,80.363h-48.158l1.802,5.913c1.359,1.801,2.165,4.043,2.165,6.473
	c0,0.193-0.005,0.387-0.016,0.578l4.385,14.386v-2.211h36.945v3.015h-36.701l0.768,2.517c0.406-0.372,0.922-0.558,1.438-0.558
	c0.558,0,1.115,0.217,1.535,0.65c0.223,0.23,0.383,0.498,0.482,0.783h32.478v3.015h-33.727l-0.769,0.831l3.992,13.101h33.378
	L374.472,80.363"/>
<path fill="#EFEEEE" d="M371.596,111.91h-32.478c0.132,0.382,0.152,0.795,0.06,1.187c-0.018,0.079-0.041,0.156-0.067,0.234
	c-0.092,0.264-0.239,0.513-0.44,0.729l-0.542,0.586l0,0l-0.259,0.279h33.727V111.91"/>
<path fill="#6FC6EB" d="M328.116,86.276l2.149,7.051c0.01-0.191,0.016-0.384,0.016-0.578
	C330.281,90.319,329.475,88.077,328.116,86.276"/>
<path fill="#FEE0B0" d="M337.101,110.477c-0.516,0-1.032,0.186-1.438,0.558l1.438,4.721l0.769-0.831l0.259-0.279l-1.524-1.526
	c0.358-0.358,0.828-0.538,1.298-0.538c0.46,0,0.919,0.172,1.274,0.515c-0.017,0.079-0.039,0.157-0.065,0.234
	c0.026-0.077,0.05-0.155,0.067-0.234c0.093-0.392,0.072-0.805-0.06-1.187c-0.099-0.285-0.26-0.553-0.482-0.783
	C338.216,110.694,337.658,110.477,337.101,110.477"/>
<path fill="#FFFFFF" d="M337.901,112.582c-0.47,0-0.939,0.179-1.298,0.538l1.524,1.526l0,0l0.542-0.586
	c0.201-0.216,0.349-0.465,0.44-0.729c0.026-0.077,0.049-0.155,0.065-0.234C338.82,112.753,338.361,112.581,337.901,112.582"/>
<polyline fill="#EFEEEE" points="371.596,105.503 334.65,105.503 334.65,107.714 334.895,108.518 371.596,108.518 371.596,105.503 
	"/>
<polyline fill="#EFEEEE" points="371.596,99.097 334.65,99.097 334.65,102.112 371.596,102.112 371.596,99.097 "/>
<polyline fill="#EFEEEE" points="371.596,92.69 334.65,92.69 334.65,95.705 371.596,95.705 371.596,92.69 "/>
<polyline fill="#EFEEEE" points="371.596,86.284 334.65,86.284 334.65,89.298 371.596,89.298 371.596,86.284 "/>
<path fill="#818181" d="M384.544,89.53c-0.001,1.958-0.795,3.729-2.076,5.01c-1.283,1.283-3.056,2.078-5.012,2.078
	c-3.915,0-7.087-3.172-7.087-7.087v-5.019l7.087,0.002l7.088-0.002V89.53L384.544,89.53z"/>
<path fill="#CDCAC3" d="M370.237,78.704c-0.508-5.938-2.492-11.769-5.867-17.225l0.215-0.134h26.039l0.002,0.001
	c-1.753,2.813-3.137,5.729-4.14,8.706c-1.286,3.827-1.942,7.758-1.942,11.716l-0.001,1.35l0.001,1.393l-7.088,0.002l-7.087-0.002
	v-1.395v-1.348C370.369,80.744,370.326,79.723,370.237,78.704z"/>
<path fill="#FCD18C" d="M370.28,85.027v5.292c0,2.25-1.089,4.362-2.923,5.667l-1.867,1.327v31.543h-13.296v-31.33
	c-2.015-2.486-3.113-5.585-3.113-8.785V84.94c0,1.233,0.996,2.232,2.23,2.232c0.132,0,0.259-0.013,0.383-0.036v0.003l0.415,1.441
	c0.371,1.291,1.721,2.036,3.013,1.665l4.634-1.334l0.94-0.272l2.05-0.59c-0.431-0.104-0.818-0.328-1.124-0.632
	c-0.173-0.173-0.318-0.375-0.433-0.59c-0.172-0.333-0.27-0.709-0.27-1.108c0-1.047,0.668-1.935,1.6-2.265
	c0.035-0.013,0.071-0.022,0.106-0.033c0.219-0.068,0.453-0.104,0.693-0.104h3.615l1.637,0.002
	C369.518,83.318,370.28,84.081,370.28,85.027z"/>
<path fill="#818181" d="M370.369,89.53l-0.089,0.002v-4.505c0-0.946-0.763-1.709-1.709-1.709l-1.638-0.002v-3.394l3.304-1.218
	c0.089,1.019,0.132,2.04,0.132,3.064v1.348v1.395V89.53z"/>
<path fill="#818181" d="M362.745,88.051l-7.624,2.196c-1.291,0.371-2.64-0.374-3.011-1.666l-0.414-1.442
	c0.461-0.081,0.876-0.304,1.193-0.622c0.402-0.402,0.654-0.96,0.653-1.576l0.001-0.135c0,1.233,1,2.232,2.233,2.232
	c0.613,0,1.173-0.25,1.575-0.652c0.405-0.405,0.654-0.964,0.654-1.579c-0.002,1.231,0.998,2.231,2.231,2.231
	c0.342,0,0.664-0.075,0.952-0.212c0.113,0.217,0.26,0.417,0.432,0.589C361.928,87.721,362.315,87.944,362.745,88.051z"/>
<path fill="#DDB67B" d="M352.454,89.894c-0.326-0.325-0.575-0.735-0.711-1.208l-0.414-1.442l0.733-0.21l0.414,1.441
	c0.312,1.086,1.451,1.717,2.539,1.405l5.944-1.905l-0.346,0.869l-5.388,1.769C354.207,90.906,353.156,90.595,352.454,89.894z"/>
<path fill="#FCD18C" d="M366.934,83.315h-3.612c-0.281,0-0.552,0.049-0.803,0.137l-0.048-0.135v-0.219v-3.944v-0.417v-0.032
	c0.001-0.617,0.249-1.174,0.654-1.578c0.404-0.404,0.962-0.653,1.578-0.654c1.231,0.001,2.23,1.001,2.23,2.231v0.032v1.186V83.315
	L366.934,83.315z"/>
<path fill="#FCD18C" d="M361.19,86.827c-0.287,0.136-0.61,0.212-0.952,0.212c-1.169,0-2.127-0.897-2.223-2.039v-0.011
	c-0.004-0.059-0.009-0.12-0.009-0.181v-6.072c0-0.04,0-0.08-0.002-0.117l0.002-0.642c0-1.233,1.001-2.233,2.232-2.233
	c0.555,0,1.062,0.202,1.45,0.538c0.046,0.038,0.087,0.076,0.128,0.117c0.351,0.351,0.586,0.818,0.638,1.339l0.002,0.009
	c0.007,0.075,0.012,0.151,0.014,0.228v0.73v0.032v0.417v3.944v0.219l0.048,0.135c-0.931,0.331-1.6,1.219-1.6,2.265
	C360.919,86.116,361.017,86.494,361.19,86.827z"/>
<path fill="#FCD18C" d="M357.353,86.386c-0.03,0.03-0.059,0.06-0.093,0.086c-0.392,0.352-0.915,0.566-1.482,0.566
	c-1.233,0-2.233-1-2.233-2.232v-2.635l-0.001-1.566v-1.869c0.001-0.617,0.251-1.172,0.655-1.577s0.96-0.654,1.577-0.656
	c0.557,0,1.061,0.202,1.45,0.538c0.424,0.359,0.709,0.879,0.769,1.463v0.004c0.004,0.036,0.01,0.073,0.011,0.111
	c0.002,0.038,0.002,0.078,0.002,0.116v6.072C358.007,85.422,357.758,85.981,357.353,86.386z"/>
<path fill="#FFFFFF" d="M361.318,85.31c0-0.466,0.043-0.929-0.316-0.939c-0.213-0.006-0.467,0.019-0.74,0.019
	c-0.738,0-1.337-0.181-1.337,0.557c0,0.739,0.599,1.337,1.337,1.337C361.001,86.283,361.318,86.048,361.318,85.31z"/>
<path fill="#CDCAC3" d="M383.955,58.964l-6.499-0.002h-6.499c1.093-2.506,3.592-4.256,6.498-4.258l0.001,0.002
	c2.907-0.002,5.408,1.75,6.499,4.255V58.964z"/>
<path fill="#FCD18C" d="M352.89,86.518c-0.037,0.037-0.079,0.075-0.118,0.111c-0.303,0.259-0.669,0.438-1.075,0.511l-0.003-0.002
	c-0.123,0.023-0.251,0.036-0.382,0.034c-1.234,0-2.231-0.998-2.231-2.23v-4.336c0-0.615,0.25-1.173,0.655-1.578
	c0.402-0.403,0.961-0.653,1.576-0.653c0.563-0.001,1.072,0.207,1.467,0.55c0.439,0.382,0.729,0.937,0.758,1.56l0.002,0.005
	c0.003,0.038,0.004,0.076,0.004,0.115l0.001,1.566v2.635l-0.001,0.135c0,0.054-0.001,0.109-0.007,0.161
	C353.498,85.654,353.256,86.15,352.89,86.518z"/>
<path fill="#DDB67B" d="M362.457,83.326l-0.787,0.581l0.02-7.625c0.046,0.038,0.087,0.076,0.13,0.117
	c0.35,0.351,0.584,0.818,0.637,1.339l0.001,0.009V83.326z"/>
<path fill="#DDB67B" d="M357.353,86.386c-0.03,0.03-0.059,0.06-0.093,0.086l-0.034-9.432c0.424,0.359,0.709,0.879,0.769,1.463v0.003
	l0.013,3.698v0.166l0.009,2.619c-0.004-0.06-0.009-0.121-0.009-0.182C358.007,85.422,357.758,85.981,357.353,86.386z"/>
<path fill="#DDB67B" d="M352.89,86.518c-0.037,0.037-0.079,0.075-0.118,0.111l0.007-7.704c0.439,0.383,0.729,0.937,0.758,1.56
	l0.002,0.006l-0.003,4.612C353.498,85.654,353.256,86.15,352.89,86.518z"/>
<path fill="#DDB67B" d="M367.182,87.739L367.182,87.739c0.002-0.211-0.166-0.385-0.378-0.388l-3.469-0.049
	c-0.71-0.009-1.39-0.365-1.747-0.979c-0.448-0.771-0.319-1.702,0.235-2.319c0.371-0.415,0.904-0.654,1.463-0.657l3.647-0.03
	l-0.007-0.763l-3.647,0.03c-0.77,0.004-1.508,0.336-2.024,0.91c-0.515,0.574-0.765,1.343-0.686,2.11
	c0.065,0.649,0.355,1.226,0.788,1.658c0.129,0.129,0.272,0.246,0.426,0.347c-1.861,0.637-3.238,2.33-3.404,4.362
	c-0.018,0.222,0.16,0.413,0.382,0.413c0.198,0,0.362-0.151,0.378-0.349c0.179-2.201,2.026-3.937,4.271-3.937l3.386,0.02
	C367.006,88.118,367.178,87.949,367.182,87.739z"/>
<path fill="#FFFFFF" d="M352.33,85.267c0-0.562-0.455-0.424-1.018-0.424c-0.562,0-1.017-0.138-1.017,0.424
	c0,0.561,0.455,1.016,1.017,1.016C351.875,86.283,352.33,85.828,352.33,85.267z"/>
<path fill="#FFFFFF" d="M357.113,84.946c0-0.738-0.601-0.557-1.338-0.557c-0.738,0-1.338-0.181-1.338,0.557
	c0,0.739,0.6,1.337,1.338,1.337C356.513,86.283,357.113,85.685,357.113,84.946z"/>
<path fill="#FFFFFF" d="M363.907,85.139c-0.737,0-1.337-0.601-1.337-1.337c0-0.132,0.021-0.262,0.056-0.381
	c0.219-0.068,0.453-0.104,0.693-0.104h1.162c-0.005,0.15-0.015,0.315-0.015,0.485C364.467,84.539,364.646,85.139,363.907,85.139z"/>
<path fill="#E0E1E0" d="M361.318,85.31c0-0.466,0.043-0.929-0.316-0.939c-0.084-0.002-0.177,0-0.272,0.004
	c-0.145,0.389-0.203,0.809-0.16,1.229c0.022,0.221,0.072,0.434,0.145,0.636C361.131,86.143,361.318,85.874,361.318,85.31z"/>
<rect x="362.802" y="58.964" fill="#818181" width="29.394" height="2.515"/>
<path fill="#2AAAE2" d="M378.79,45.144v5.677c-0.435-0.066-0.879-0.102-1.334-0.102s-0.9,0.036-1.335,0.102v-5.677H378.79z"/>
<path fill="#2AAAE2" d="M388.479,50.263l-4.014,4.012c-0.529-0.722-1.167-1.358-1.89-1.887l4.015-4.014L388.479,50.263z"/>
<path fill="#2AAAE2" d="M372.334,52.388c-0.723,0.532-1.36,1.167-1.887,1.889l-4.014-4.014l1.886-1.889L372.334,52.388z"/>
<rect x="352.194" y="126.618" fill="#DDB67B" width="13.296" height="2.238"/>
<path fill="#9CA2A7" d="M494.891,276.521l5.014-15.039c-2.543-4.279-4.008-9.273-4.008-14.611
	c-0.002-15.821,12.824-28.646,28.645-28.646s28.646,12.825,28.646,28.646c0,15.82-12.826,28.646-28.646,28.646
	c-4.814,0-9.346-1.193-13.328-3.291L494.891,276.521z"/>
<path fill="#CFD4D3" d="M524.541,218.225c15.82,0,28.646,12.825,28.646,28.646c0,4.189-0.906,8.164-2.523,11.752l16.167,4.254
	l-5.014-15.039c2.543-4.279,4.008-9.272,4.008-14.611c0.001-15.82-12.824-28.646-28.646-28.646c-11.691,0-21.74,7.008-26.193,17.051
	C515.022,219.459,519.637,218.225,524.541,218.225z"/>
<circle fill="#FFFFFF" cx="511.016" cy="246.752" r="3.721"/>
<circle fill="#FFFFFF" cx="524.658" cy="246.752" r="3.721"/>
<circle fill="#FFFFFF" cx="538.303" cy="246.752" r="3.721"/>
</svg>
