<?xml version="1.0" encoding="utf-8"?>
<!-- Generator: Adobe Illustrator 16.0.0, SVG Export Plug-In . SVG Version: 6.00 Build 0)  -->
<!DOCTYPE svg PUBLIC "-//W3C//DTD SVG 1.1//EN" "http://www.w3.org/Graphics/SVG/1.1/DTD/svg11.dtd">
<svg version="1.1" id="Layer_1" xmlns="http://www.w3.org/2000/svg" xmlns:xlink="http://www.w3.org/1999/xlink" x="0px" y="0px"
	 width="682px" height="366px" viewBox="0 0 682 366" enable-background="new 0 0 682 366" xml:space="preserve">
<g>
	<g>
		<path fill="#FFFFFF" d="M1.5,103.606c0-3.499,0-6.997,0-10.496c225.16,0,450.319,0.024,675.479-0.141
			c5.622-0.004,6.922,1.261,6.896,6.889c-0.249,52.728-0.147,105.457-0.147,158.186c-6.836,3.745-14.231,2.125-21.239,1.456
			c-7.485-0.714-15.013-1.714-22.395-0.869c-14.036,1.607-25.863-3.53-37.524-10.181c-25.184-14.361-51.891-25.776-77.28-39.743
			c-5.157-2.837-8.61-1.225-12.156,3.171C483.188,249,453.476,286.309,423.58,323.47c-0.783,0.973-1.505,1.996-2.328,2.935
			c-5.187,5.906-8.135,5.759-11.415-1.552c-4.694-10.463-9.353-20.947-13.977-31.443c-11.153-25.324-22.474-50.573-33.702-75.862
			c-8.902-20.054-17.785-40.117-26.694-60.167c-7.086-15.948-14.069-31.943-21.345-47.808c-2.341-5.104-4.049-5.878-7.9-1.038
			c-15.229,19.147-30.532,38.236-45.801,57.352c-15.735,19.698-31.617,39.274-47.618,58.756c-3.787,4.61-8.654,5.835-14.083,5.122
			c-22.27-2.919-44.631-5.06-66.889-8.049c-6.188-0.831-12.428-1.312-18.613-1.798c-6.578-0.517-11.142-3.272-15.352-7.953
			c-23.037-25.616-46.57-50.782-69.363-76.621c-6.931-7.856-14.477-15.165-21.323-23.115C4.892,109.577,2.627,106.985,1.5,103.606z"
			/>
		<path fill-rule="evenodd" clip-rule="evenodd" fill="#3DC7F4" d="M1.5,103.606c16.073,17.589,32.146,35.179,48.221,52.766
			c17.755,19.425,35.449,38.906,53.31,58.233c5,5.41,12.275,3.246,18.401,4.094c25.122,3.479,50.453,5.501,75.522,9.281
			c10.841,1.634,15.021-5.022,20.233-11.459c15.286-18.876,30.604-37.726,45.795-56.679c12.888-16.081,25.518-32.369,38.485-48.385
			c3-3.706,5.442-10.681,9.533-10.052c4.431,0.68,5.341,7.985,7.368,12.463c9.793,21.637,19.108,43.484,29.217,64.989
			c7.304,15.537,13.481,31.598,20.47,47.289c6.963,15.632,14.856,30.87,21.301,46.706c4.447,10.925,9.675,21.482,14.07,32.417
			c2.734,6.802,6.062,13.363,8.963,20.102c1.987,4.615,4.4,4.106,7.044,0.787c8.585-10.781,17.02-21.684,25.66-32.418
			c15.406-19.143,30.971-38.158,46.369-57.307c6.915-8.599,13.694-17.312,20.334-26.126c3.603-4.781,6.541-7.4,13.357-3.818
			c31.104,16.345,62.594,31.96,93.896,47.933c2.065,1.055,4.02,1.779,6.336,1.845c19.448,0.559,38.895,1.177,58.342,1.777
			c0,7.497,0,14.994,0,22.491c-8.488,4.641-18.125,5.211-27.271,7.375c-8.723,2.065-17.636,3.466-26.286,5.845
			c-5.669,1.559-10.545,0.891-15.777-1.752c-26.287-13.273-52.822-26.048-79.101-39.339c-2.671-1.352-5.35-2.694-8.094-3.898
			c-8.933-3.918-9.076-3.773-15.707,3.777c-28.628,32.607-57.07,65.376-85.709,97.975c-1.644,1.872-3.292,3.759-5.127,5.452
			c-4.913,4.536-7.741,4.205-11.14-1.696c-6.835-11.87-13.13-24.041-19.736-36.039c-15.142-27.497-30.201-55.039-45.343-82.536
			c-8.89-16.146-17.897-32.246-26.307-48.655c-1.832-3.575-4.298-6.723-6.075-10.261c-1.274-1.431-1.995-0.377-2.714,0.659
			c-23.358,38.885-46.568,77.831-70.392,116.41c-8.634,13.98-16.923,28.187-25.419,42.258c-4.485,7.429-7.302,8.473-15.452,6.782
			c-28.578-5.927-57.114-12.08-85.837-17.24c-8.37-1.504-12.081-7.253-15.86-13.4c-13.176-21.431-26.649-42.682-39.747-64.155
			c-17.248-28.278-35.217-56.106-52.32-84.472c-1.17-1.939-1.648-4.136-2.814-6.039C1.5,139.592,1.5,121.599,1.5,103.606z"/>
		<path fill-rule="evenodd" clip-rule="evenodd" fill="#475EAB" d="M683.727,309.023c0,18.243-0.104,36.486,0.097,54.728
			c0.035,3.225-0.618,4.42-3.852,3.778c-0.962-0.19-1.992-0.029-2.993-0.029c-222.91,0-445.821-0.024-668.732,0.141
			c-5.621,0.005-6.927-1.261-6.896-6.889C1.613,314.022,1.5,267.29,1.5,220.56c3.724-0.418,5.14,2.638,6.906,4.857
			c30.318,38.083,61.076,75.812,91.329,113.946c4.329,5.456,9.061,7.892,16.294,8.551c21.832,1.989,43.677,4.028,65.456,6.646
			c6.186,0.743,12.427,0.911,18.6,1.897c4.484,0.717,7.857-0.99,11.193-4.404c22.152-22.676,43.869-45.769,65.921-68.54
			c9.025-9.318,17.822-18.866,26.905-28.134c5.989-6.11,8.198-6.253,14.074,0.129c15.044,16.339,29.462,33.245,44.42,49.663
			c16.135,17.71,32.344,35.354,48.026,53.466c3.878,4.479,6.929,3.826,11.428,0.8c30.206-20.316,60.507-40.491,90.802-60.676
			c3.658-2.437,7.327-2.466,11.428-1.653c23.994,4.757,48.061,9.386,71.668,15.678c17.947,4.784,35.332,4.926,53.13,0.755
			c8.509-1.992,17.208-3.028,25.818-4.515C677.793,308.526,680.787,307.657,683.727,309.023z"/>
		<path fill-rule="evenodd" clip-rule="evenodd" fill="#4F83C4" d="M683.727,309.023c-13.653,2.497-27.59,3.981-40.893,7.722
			c-21.207,5.964-40.767-1.174-60.79-5.371c-20.172-4.228-40.326-8.542-60.464-12.924c-2.631-0.573-4.656-0.183-6.902,1.362
			c-13.449,9.252-26.866,18.564-40.562,27.443c-18.476,11.979-36.982,23.902-54.859,36.766c-3.753,2.7-6.152,0.384-8.22-1.9
			c-10.432-11.53-20.62-23.28-30.996-34.86c-17.14-19.13-34.354-38.191-51.546-57.273c-4.461-4.95-9.243-9.646-13.355-14.869
			c-3.112-3.95-5.22-3.359-8.313-0.109c-30.978,32.539-61.832,65.194-93.209,97.355c-4.65,4.767-8.533,6.768-14.552,6.104
			c-26.648-2.938-53.252-7.346-79.967-8.167c-13.725-0.423-19.578-8.027-26.39-16.49c-23.56-29.267-46.98-58.645-70.5-87.943
			C15.384,237.366,8.406,228.992,1.5,220.56c0-20.992,0-41.983,0-62.975c7.917,7.662,11.953,17.92,17.859,26.919
			c11.605,17.684,22.845,35.61,34.006,53.579c9.223,14.847,18.038,29.946,27.175,44.847c7.585,12.369,15.395,24.601,23.056,36.924
			c1.015,1.631,2.354,2.312,4.198,2.688c31.373,6.411,62.724,12.928,94.104,19.298c3.678,0.747,6.626-0.561,8.737-4.142
			c12.49-21.198,25.016-42.378,37.779-63.413c10.96-18.063,22.621-35.708,33.282-53.942c8.813-15.071,17.728-30.067,27.059-44.82
			c1.289-1.042,2.581-2.076,4.41-1.344c7.047,12.938,14.07,25.888,21.148,38.808c6.961,12.708,13.955,25.398,20.976,38.072
			c7.251,13.088,14.594,26.125,21.819,39.228c4.631,8.397,9.162,16.851,13.668,25.317c6.813,12.804,13.509,25.669,20.375,38.443
			c2.315,4.31,5.304,4.429,8.519,0.742c12.15-13.938,24.329-27.852,36.483-41.786c11.023-12.638,22.031-25.29,33.044-37.937
			c7.596-8.724,15.168-17.468,22.792-26.166c3.267-3.727,5.646-7.033,12.225-3.647c30.051,15.467,60.549,30.063,90.832,45.078
			c4.841,2.4,9.333,2.833,14.792,1.551c17.864-4.198,35.91-7.624,53.887-11.347C683.727,290.031,683.727,299.527,683.727,309.023z"
			/>
		<path fill-rule="evenodd" clip-rule="evenodd" fill="#518BC9" d="M313.167,174.179c-1.469,0.448-2.939,0.896-4.41,1.344
			C309.438,172.487,310.694,171.337,313.167,174.179z"/>
	</g>
</g>
</svg>
