<?xml version="1.0" standalone="no"?>
<!DOCTYPE svg PUBLIC "-//W3C//DTD SVG 20010904//EN"
 "http://www.w3.org/TR/2001/REC-SVG-20010904/DTD/svg10.dtd">
<svg version="1.0" xmlns="http://www.w3.org/2000/svg"
 width="1024.000000pt" height="1024.000000pt" viewBox="0 0 1024.000000 1024.000000"
 preserveAspectRatio="xMidYMid meet">
<metadata>
Created by potrace 1.11, written by Peter Selinger 2001-2013
</metadata>
<g transform="translate(0.000000,1024.000000) scale(0.100000,-0.100000)"
fill="#000000" stroke="none">
<path d="M4895 10160 c-1619 -79 -3069 -902 -3972 -2255 -401 -601 -678 -1325
-782 -2045 -40 -278 -46 -369 -46 -735 0 -367 7 -476 46 -745 119 -816 447
-1607 944 -2275 278 -375 655 -751 1037 -1036 686 -512 1520 -849 2358 -953
323 -40 764 -51 1055 -27 1456 124 2751 835 3626 1991 199 262 343 497 499
815 282 572 440 1140 501 1795 17 175 17 686 0 860 -81 870 -351 1647 -816
2350 -684 1035 -1720 1780 -2915 2098 -473 126 -1041 186 -1535 162z m485
-970 c994 -67 1888 -463 2589 -1144 825 -803 1271 -1896 1238 -3031 -7 -241
-17 -350 -53 -562 -142 -859 -553 -1643 -1185 -2258 -1150 -1119 -2845 -1456
-4344 -864 -135 53 -415 190 -544 266 -763 448 -1369 1139 -1710 1949 -156
371 -263 807 -302 1224 -15 161 -15 539 0 700 129 1385 915 2578 2139 3244
286 156 628 287 957 367 250 60 470 92 775 113 107 7 306 5 440 -4z"/>
<path d="M2640 5832 c0 -4 159 -166 353 -360 l352 -352 1784 0 1783 0 359 351
c198 193 359 355 359 360 0 5 -1067 9 -2495 9 -1372 0 -2495 -3 -2495 -8z"/>
<path d="M3350 4002 c0 -4 114 -121 253 -260 l252 -252 1290 0 1290 0 252 252
c139 139 253 256 253 260 0 5 -808 8 -1795 8 -987 0 -1795 -3 -1795 -8z"/>
</g>
</svg>
